G04*
G04 #@! TF.GenerationSoftware,Altium Limited,Altium Designer,21.7.2 (23)*
G04*
G04 Layer_Color=16711935*
%FSLAX25Y25*%
%MOIN*%
G70*
G04*
G04 #@! TF.SameCoordinates,A0010EF7-2AB2-453B-8453-4F0255DAD4E6*
G04*
G04*
G04 #@! TF.FilePolarity,Positive*
G04*
G01*
G75*
%ADD10C,0.00787*%
%ADD20C,0.00394*%
%ADD197C,0.00050*%
%ADD198C,0.00025*%
D10*
X542292Y206282D02*
X542230Y207276D01*
X542099Y208262D01*
X541901Y209238D01*
X541637Y210197D01*
X541307Y211136D01*
X540914Y212051D01*
X540460Y212936D01*
X539946Y213789D01*
X539374Y214603D01*
X538749Y215377D01*
X538071Y216107D01*
X537346Y216788D01*
X536575Y217418D01*
X535763Y217994D01*
X534913Y218512D01*
X534031Y218972D01*
X533118Y219369D01*
X532181Y219704D01*
X531223Y219973D01*
X530248Y220176D01*
X529262Y220312D01*
X528269Y220381D01*
X527274D01*
X526281Y220312D01*
X525295Y220177D01*
X524321Y219973D01*
X523363Y219704D01*
X522425Y219369D01*
X521513Y218972D01*
X520630Y218512D01*
X519780Y217994D01*
X518968Y217418D01*
X518198Y216788D01*
X517472Y216107D01*
X516795Y215377D01*
X516169Y214603D01*
X515598Y213789D01*
X515084Y212936D01*
X514629Y212051D01*
X514236Y211136D01*
X513907Y210197D01*
X513642Y209238D01*
X513444Y208262D01*
X513314Y207276D01*
X513251Y206282D01*
X676151Y206282D02*
X676088Y207276D01*
X675957Y208262D01*
X675759Y209238D01*
X675495Y210197D01*
X675166Y211136D01*
X674773Y212051D01*
X674318Y212936D01*
X673804Y213789D01*
X673233Y214603D01*
X672607Y215377D01*
X671929Y216107D01*
X671204Y216788D01*
X670433Y217418D01*
X669621Y217994D01*
X668772Y218512D01*
X667889Y218972D01*
X666976Y219369D01*
X666039Y219704D01*
X665081Y219973D01*
X664107Y220176D01*
X663121Y220312D01*
X662128Y220381D01*
X661132D01*
X660139Y220312D01*
X659153Y220176D01*
X658179Y219973D01*
X657221Y219704D01*
X656283Y219369D01*
X655371Y218972D01*
X654488Y218512D01*
X653639Y217994D01*
X652827Y217418D01*
X652056Y216788D01*
X651330Y216107D01*
X650653Y215377D01*
X650027Y214603D01*
X649456Y213789D01*
X648942Y212936D01*
X648487Y212051D01*
X648094Y211136D01*
X647765Y210197D01*
X647501Y209238D01*
X647303Y208262D01*
X647172Y207276D01*
X647109Y206282D01*
X901769Y358312D02*
X900785Y358179D01*
X899809Y357997D01*
X898844Y357765D01*
X897892Y357485D01*
X896954Y357158D01*
X896035Y356784D01*
X895135Y356364D01*
X894258Y355899D01*
X893406Y355391D01*
X892580Y354840D01*
X891783Y354248D01*
X891016Y353617D01*
X890283Y352948D01*
X889584Y352243D01*
X888921Y351504D01*
X888297Y350732D01*
X887712Y349930D01*
X887168Y349100D01*
X886667Y348243D01*
X886210Y347362D01*
X885798Y346459D01*
X885431Y345536D01*
X885112Y344596D01*
X884840Y343641D01*
X884617Y342674D01*
X884443Y341697D01*
X884318Y340712D01*
X884243Y339722D01*
X884218Y338730D01*
X884243Y337737D01*
X884318Y336747D01*
X884443Y335763D01*
X884617Y334785D01*
X884840Y333818D01*
X885112Y332863D01*
X885431Y331923D01*
X885798Y331001D01*
X886210Y330098D01*
X886667Y329217D01*
X887168Y328360D01*
X887712Y327529D01*
X888297Y326727D01*
X888921Y325955D01*
X889584Y325216D01*
X890283Y324511D01*
X891016Y323842D01*
X891783Y323211D01*
X892580Y322620D01*
X893406Y322069D01*
X894258Y321560D01*
X895135Y321096D01*
X896035Y320676D01*
X896954Y320301D01*
X897892Y319974D01*
X898844Y319694D01*
X899809Y319463D01*
X900785Y319280D01*
X901769Y319147D01*
X287633Y319147D02*
X288616Y319280D01*
X289592Y319463D01*
X290558Y319694D01*
X291510Y319974D01*
X292447Y320301D01*
X293367Y320676D01*
X294266Y321096D01*
X295143Y321560D01*
X295996Y322069D01*
X296822Y322620D01*
X297619Y323211D01*
X298385Y323842D01*
X299119Y324511D01*
X299818Y325216D01*
X300480Y325955D01*
X301105Y326727D01*
X301690Y327529D01*
X302233Y328360D01*
X302734Y329217D01*
X303192Y330098D01*
X303604Y331001D01*
X303970Y331923D01*
X304290Y332863D01*
X304561Y333818D01*
X304785Y334785D01*
X304959Y335763D01*
X305084Y336748D01*
X305158Y337737D01*
X305184Y338730D01*
X305158Y339722D01*
X305083Y340712D01*
X304959Y341697D01*
X304785Y342674D01*
X304561Y343641D01*
X304290Y344596D01*
X303970Y345536D01*
X303604Y346459D01*
X303192Y347362D01*
X302734Y348243D01*
X302233Y349100D01*
X301690Y349930D01*
X301105Y350732D01*
X300480Y351504D01*
X299818Y352243D01*
X299119Y352948D01*
X298385Y353617D01*
X297619Y354248D01*
X296822Y354840D01*
X295996Y355391D01*
X295143Y355899D01*
X294266Y356364D01*
X293366Y356784D01*
X292447Y357158D01*
X291510Y357485D01*
X290557Y357765D01*
X289592Y357997D01*
X288616Y358179D01*
X287633Y358312D01*
Y287651D02*
X349738Y206282D01*
X513251Y206282D01*
X542292Y206282D02*
X647109Y206282D01*
X676151Y206282D02*
X839663D01*
X901769Y287651D01*
Y319147D01*
Y358312D02*
Y453888D01*
X867388Y488159D02*
X901769Y453888D01*
X740896Y488159D02*
X867388D01*
X737000Y492055D02*
X740896Y488159D01*
X737000Y492055D02*
Y549366D01*
X645823D02*
X737000D01*
X645823Y484961D02*
Y549366D01*
X624351Y463556D02*
X645823Y484961D01*
X565051Y463556D02*
X624351D01*
X543578Y484961D02*
X565051Y463556D01*
X543578Y484961D02*
Y549366D01*
X452500D02*
X543578D01*
X452500Y492154D02*
Y549366D01*
X448505Y488159D02*
X452500Y492154D01*
X322013Y488159D02*
X448505D01*
X287633Y453888D02*
X322013Y488159D01*
X287633Y358312D02*
Y453888D01*
Y287651D02*
Y319147D01*
D20*
X846473Y321309D02*
Y322883D01*
X845686Y322096D02*
X847261D01*
X846248Y469462D02*
X847823D01*
X847036Y468674D02*
Y470249D01*
X567969Y441332D02*
Y442907D01*
X567182Y442119D02*
X568757D01*
D197*
X485416Y472125D02*
X485347Y473112D01*
X485141Y474079D01*
X484803Y475008D01*
X484339Y475881D01*
X483758Y476681D01*
X483071Y477392D01*
X482292Y478000D01*
X481435Y478495D01*
X480519Y478865D01*
X479560Y479104D01*
X478576Y479208D01*
X477588Y479173D01*
X476615Y479002D01*
X475674Y478696D01*
X474786Y478263D01*
X473966Y477710D01*
X473231Y477048D01*
X472596Y476291D01*
X472072Y475452D01*
X471670Y474549D01*
X471397Y473599D01*
X471260Y472620D01*
Y471631D01*
X471397Y470652D01*
X471670Y469702D01*
X472072Y468798D01*
X472596Y467960D01*
X473231Y467203D01*
X473966Y466541D01*
X474786Y465988D01*
X475674Y465555D01*
X476615Y465249D01*
X477588Y465078D01*
X478576Y465043D01*
X479560Y465146D01*
X480519Y465386D01*
X481435Y465756D01*
X482292Y466250D01*
X483071Y466859D01*
X483758Y467570D01*
X484339Y468370D01*
X484803Y469243D01*
X485141Y470172D01*
X485347Y471139D01*
X485416Y472125D01*
X901769Y358312D02*
X900785Y358179D01*
X899809Y357997D01*
X898844Y357765D01*
X897892Y357485D01*
X896954Y357158D01*
X896035Y356784D01*
X895135Y356364D01*
X894258Y355899D01*
X893406Y355391D01*
X892580Y354840D01*
X891783Y354248D01*
X891016Y353617D01*
X890283Y352948D01*
X889584Y352243D01*
X888921Y351504D01*
X888297Y350732D01*
X887712Y349930D01*
X887168Y349100D01*
X886667Y348243D01*
X886210Y347362D01*
X885798Y346459D01*
X885431Y345536D01*
X885112Y344596D01*
X884840Y343641D01*
X884617Y342674D01*
X884443Y341697D01*
X884318Y340712D01*
X884243Y339722D01*
X884218Y338730D01*
X884243Y337737D01*
X884318Y336747D01*
X884443Y335763D01*
X884617Y334785D01*
X884840Y333818D01*
X885112Y332863D01*
X885431Y331923D01*
X885798Y331001D01*
X886210Y330098D01*
X886667Y329217D01*
X887168Y328360D01*
X887712Y327529D01*
X888297Y326727D01*
X888921Y325955D01*
X889584Y325216D01*
X890283Y324511D01*
X891016Y323842D01*
X891783Y323211D01*
X892580Y322620D01*
X893406Y322069D01*
X894258Y321560D01*
X895135Y321096D01*
X896035Y320676D01*
X896954Y320301D01*
X897892Y319974D01*
X898844Y319694D01*
X899809Y319463D01*
X900785Y319280D01*
X901769Y319147D01*
X287633Y319147D02*
X288616Y319280D01*
X289592Y319463D01*
X290558Y319694D01*
X291510Y319974D01*
X292447Y320301D01*
X293367Y320676D01*
X294266Y321096D01*
X295143Y321560D01*
X295996Y322069D01*
X296822Y322620D01*
X297619Y323211D01*
X298385Y323842D01*
X299119Y324511D01*
X299818Y325216D01*
X300480Y325955D01*
X301105Y326727D01*
X301690Y327529D01*
X302233Y328360D01*
X302734Y329217D01*
X303192Y330098D01*
X303604Y331001D01*
X303970Y331923D01*
X304290Y332863D01*
X304561Y333818D01*
X304785Y334785D01*
X304959Y335763D01*
X305084Y336748D01*
X305158Y337737D01*
X305184Y338730D01*
X305158Y339722D01*
X305083Y340712D01*
X304959Y341697D01*
X304785Y342674D01*
X304561Y343641D01*
X304290Y344596D01*
X303970Y345536D01*
X303604Y346459D01*
X303192Y347362D01*
X302734Y348243D01*
X302233Y349100D01*
X301690Y349930D01*
X301105Y350732D01*
X300480Y351504D01*
X299818Y352243D01*
X299119Y352948D01*
X298385Y353617D01*
X297619Y354248D01*
X296822Y354840D01*
X295996Y355391D01*
X295143Y355899D01*
X294266Y356364D01*
X293366Y356784D01*
X292447Y357158D01*
X291510Y357485D01*
X290557Y357765D01*
X289592Y357997D01*
X288616Y358179D01*
X287633Y358312D01*
X485416Y243779D02*
X485347Y244765D01*
X485141Y245732D01*
X484803Y246661D01*
X484339Y247534D01*
X483758Y248334D01*
X483071Y249045D01*
X482292Y249654D01*
X481435Y250148D01*
X480519Y250519D01*
X479560Y250758D01*
X478576Y250861D01*
X477588Y250827D01*
X476615Y250655D01*
X475674Y250350D01*
X474786Y249916D01*
X473966Y249363D01*
X473231Y248702D01*
X472596Y247944D01*
X472072Y247106D01*
X471670Y246203D01*
X471397Y245252D01*
X471260Y244273D01*
Y243285D01*
X471397Y242306D01*
X471670Y241355D01*
X472072Y240452D01*
X472596Y239614D01*
X473231Y238856D01*
X473966Y238195D01*
X474786Y237642D01*
X475674Y237208D01*
X476615Y236903D01*
X477588Y236731D01*
X478576Y236697D01*
X479560Y236800D01*
X480519Y237039D01*
X481435Y237410D01*
X482292Y237904D01*
X483071Y238513D01*
X483758Y239224D01*
X484339Y240024D01*
X484803Y240897D01*
X485141Y241826D01*
X485347Y242793D01*
X485416Y243779D01*
X823998D02*
X823929Y244765D01*
X823724Y245732D01*
X823386Y246661D01*
X822921Y247534D01*
X822340Y248334D01*
X821653Y249045D01*
X820874Y249654D01*
X820018Y250148D01*
X819102Y250519D01*
X818142Y250758D01*
X817159Y250861D01*
X816171Y250827D01*
X815197Y250655D01*
X814257Y250350D01*
X813368Y249916D01*
X812549Y249363D01*
X811814Y248702D01*
X811178Y247944D01*
X810655Y247106D01*
X810252Y246203D01*
X809980Y245252D01*
X809842Y244273D01*
Y243285D01*
X809980Y242306D01*
X810252Y241355D01*
X810655Y240452D01*
X811178Y239614D01*
X811814Y238856D01*
X812549Y238195D01*
X813368Y237642D01*
X814257Y237208D01*
X815197Y236903D01*
X816171Y236731D01*
X817159Y236697D01*
X818142Y236800D01*
X819102Y237039D01*
X820018Y237410D01*
X820874Y237904D01*
X821653Y238513D01*
X822340Y239224D01*
X822921Y240024D01*
X823386Y240897D01*
X823724Y241826D01*
X823929Y242793D01*
X823998Y243779D01*
Y472125D02*
X823929Y473112D01*
X823724Y474079D01*
X823386Y475008D01*
X822921Y475881D01*
X822340Y476681D01*
X821653Y477392D01*
X820874Y478000D01*
X820018Y478495D01*
X819102Y478865D01*
X818142Y479104D01*
X817159Y479208D01*
X816171Y479173D01*
X815197Y479002D01*
X814257Y478696D01*
X813368Y478263D01*
X812549Y477710D01*
X811814Y477048D01*
X811178Y476291D01*
X810655Y475452D01*
X810252Y474549D01*
X809980Y473599D01*
X809842Y472620D01*
Y471631D01*
X809980Y470652D01*
X810252Y469702D01*
X810655Y468798D01*
X811178Y467960D01*
X811814Y467203D01*
X812549Y466541D01*
X813368Y465988D01*
X814257Y465555D01*
X815197Y465249D01*
X816171Y465078D01*
X817159Y465043D01*
X818142Y465146D01*
X819102Y465386D01*
X820018Y465756D01*
X820874Y466250D01*
X821653Y466859D01*
X822340Y467570D01*
X822921Y468370D01*
X823386Y469243D01*
X823724Y470172D01*
X823929Y471139D01*
X823998Y472125D01*
X542292Y206282D02*
X647109D01*
X867393Y488164D02*
X901773Y453892D01*
X740896Y488159D02*
X867388D01*
X737000Y492055D02*
X740896Y488159D01*
X452500Y492154D02*
Y549366D01*
X448505Y488159D02*
X452500Y492154D01*
Y549366D02*
X543578D01*
X901769Y287651D02*
Y319147D01*
X287633Y287651D02*
Y319147D01*
X624351Y463556D02*
X645823Y484961D01*
X565051Y463556D02*
X624351D01*
X543578Y484961D02*
X565051Y463556D01*
X287633Y453888D02*
X322013Y488159D01*
X543578Y484961D02*
Y549366D01*
X737000Y492055D02*
Y549366D01*
X645823D02*
X737000D01*
X645823Y484961D02*
Y549366D01*
X839663Y206282D02*
X901769Y287651D01*
Y358312D02*
Y453888D01*
X349738Y206282D02*
X513251D01*
X287633Y287651D02*
X349738Y206282D01*
X287633Y358312D02*
Y453888D01*
D198*
X594713Y463556D02*
D03*
M02*
