G04*
G04 #@! TF.GenerationSoftware,Altium Limited,Altium Designer,21.7.2 (23)*
G04*
G04 Layer_Color=32768*
%FSLAX25Y25*%
%MOIN*%
G70*
G04*
G04 #@! TF.SameCoordinates,A0010EF7-2AB2-453B-8453-4F0255DAD4E6*
G04*
G04*
G04 #@! TF.FilePolarity,Positive*
G04*
G01*
G75*
%ADD15C,0.00600*%
%ADD19C,0.00500*%
%ADD20C,0.00394*%
%ADD200C,0.00197*%
%ADD201C,0.00201*%
G36*
X368261Y356305D02*
Y348405D01*
X366801D01*
Y345055D01*
X356721D01*
Y348405D01*
X355261D01*
Y356305D01*
X356721D01*
Y359655D01*
X366801D01*
Y356305D01*
X368261D01*
D02*
G37*
G36*
X376972Y364445D02*
Y363245D01*
X373972D01*
Y364445D01*
X373172D01*
Y369745D01*
X373972D01*
Y370945D01*
X376972D01*
Y369745D01*
X377772D01*
Y364445D01*
X376972D01*
D02*
G37*
G36*
X454158Y431224D02*
X354985D01*
Y501854D01*
X454158D01*
Y431224D01*
D02*
G37*
G36*
X485962Y512867D02*
Y544567D01*
X460162D01*
Y512867D01*
X485962D01*
D02*
G37*
G36*
X502455Y483635D02*
X508155D01*
Y482653D01*
X509555D01*
Y477316D01*
X508155D01*
Y476335D01*
X502455D01*
Y477116D01*
X501055D01*
Y482853D01*
X502455D01*
Y483635D01*
D02*
G37*
G36*
X546382Y366048D02*
Y365748D01*
X539165D01*
Y366048D01*
X536625D01*
Y388856D01*
X539165D01*
Y389156D01*
X546382D01*
Y388856D01*
X548921D01*
Y366048D01*
X546382D01*
D02*
G37*
G36*
X579839Y423574D02*
Y424174D01*
X601339D01*
Y423574D01*
X616989D01*
Y368074D01*
X601339D01*
Y367474D01*
X579839D01*
Y368074D01*
X564189D01*
Y423574D01*
X579839D01*
D02*
G37*
G36*
X643027Y375639D02*
X648527D01*
Y356738D01*
X643027D01*
Y354838D01*
X625627D01*
Y356738D01*
X620127D01*
Y375639D01*
X625627D01*
Y377538D01*
X643027D01*
Y375639D01*
D02*
G37*
G36*
X729498Y300193D02*
X724870D01*
Y304820D01*
X723270D01*
Y319644D01*
X724870D01*
Y324272D01*
X729498D01*
Y325872D01*
X740384D01*
Y324272D01*
X745012D01*
Y319644D01*
X746612D01*
Y304820D01*
X745012D01*
Y300193D01*
X740384D01*
Y298593D01*
X729498D01*
Y300193D01*
D02*
G37*
G36*
X752035Y380853D02*
Y386103D01*
X763015D01*
Y380853D01*
X764625D01*
Y366653D01*
X763015D01*
Y361403D01*
X752035D01*
Y366653D01*
X750424D01*
Y380853D01*
X752035D01*
D02*
G37*
G36*
X736709Y401667D02*
Y401367D01*
X743927D01*
Y401667D01*
X746466D01*
Y424475D01*
X743927D01*
Y424775D01*
X736709D01*
Y424475D01*
X734170D01*
Y401667D01*
X736709D01*
D02*
G37*
D15*
X368261Y348405D02*
Y356305D01*
X366801D02*
X368261D01*
X366801D02*
Y359655D01*
X356721D02*
X366801D01*
X356721Y356305D02*
Y359655D01*
X355261Y356305D02*
X356721D01*
X355261Y348405D02*
Y356305D01*
Y348405D02*
X356721D01*
Y345055D02*
Y348405D01*
Y345055D02*
X366801D01*
Y348405D01*
X368261D01*
X724870Y300193D02*
X729498D01*
Y298593D02*
Y300193D01*
Y298593D02*
X740384D01*
Y300193D01*
X745012D01*
Y304820D01*
X746612D01*
Y319644D01*
X745012D02*
X746612D01*
X745012D02*
Y324272D01*
X740384D02*
X745012D01*
X740384D02*
Y325872D01*
X729498D02*
X740384D01*
X729498Y324272D02*
Y325872D01*
X724870Y324272D02*
X729498D01*
X724870Y319644D02*
Y324272D01*
X723270Y319644D02*
X724870D01*
X723270Y304820D02*
Y319644D01*
Y304820D02*
X724870D01*
Y300193D02*
Y304820D01*
X648527Y356738D02*
Y375639D01*
X643027Y356738D02*
X648527D01*
X643027Y354838D02*
Y356738D01*
X625627Y354838D02*
X643027D01*
X625627D02*
Y356738D01*
X620127D02*
X625627D01*
X620127D02*
Y375639D01*
X625627D01*
Y377538D01*
X643027D01*
Y375639D02*
Y377538D01*
Y375639D02*
X648527D01*
X752035Y386103D02*
X763015D01*
Y380853D02*
Y386103D01*
Y380853D02*
X764625D01*
Y366653D02*
Y380853D01*
X763015Y366653D02*
X764625D01*
X763015Y361403D02*
Y366653D01*
X752035Y361403D02*
X763015D01*
X752035D02*
Y366653D01*
X750424D02*
X752035D01*
X750424D02*
Y380853D01*
X752035D01*
Y386103D01*
X579839Y424174D02*
X601339D01*
Y423574D02*
Y424174D01*
Y367474D02*
Y368074D01*
X579839Y367474D02*
X601339D01*
X579839D02*
Y368074D01*
Y423574D02*
Y424174D01*
X564189Y423574D02*
X579839D01*
X601339D02*
X616989D01*
Y368074D02*
Y423574D01*
X601339Y368074D02*
X616989D01*
X564189D02*
X579839D01*
X564189D02*
Y423574D01*
X485962Y512867D02*
Y544567D01*
X460162Y512867D02*
X485962D01*
X460162D02*
Y544567D01*
X485962D01*
X540009Y422917D02*
Y453648D01*
X496644Y422917D02*
X540009D01*
X496644D02*
Y453648D01*
X540009D01*
X502455Y483635D02*
X508155D01*
X502455Y482853D02*
Y483635D01*
X501055Y482853D02*
X502455D01*
X501055Y477116D02*
Y482853D01*
Y477116D02*
X502455D01*
Y476335D02*
Y477116D01*
Y476335D02*
X508155D01*
Y477316D01*
X509555D01*
Y482653D01*
X508155D02*
X509555D01*
X508155D02*
Y483635D01*
X548921Y366048D02*
Y388856D01*
X546382D02*
X548921D01*
X536625D02*
X539165D01*
X536625Y366048D02*
Y388856D01*
Y366048D02*
X539165D01*
X546382D02*
X548921D01*
X546382Y365748D02*
Y366048D01*
Y388856D02*
Y389156D01*
X539165D02*
X546382D01*
X539165Y388856D02*
Y389156D01*
Y365748D02*
Y366048D01*
Y365748D02*
X546382D01*
X376972Y369745D02*
Y370945D01*
X373972D02*
X376972D01*
X373972Y369745D02*
Y370945D01*
X377772Y364445D02*
Y369745D01*
X376972D02*
X377772D01*
X373172D02*
X373972D01*
X373172Y364445D02*
Y369745D01*
Y364445D02*
X373972D01*
X376972D02*
X377772D01*
X376972Y363245D02*
Y364445D01*
X373972Y363245D02*
Y364445D01*
Y363245D02*
X376972D01*
X734170Y401667D02*
Y424475D01*
X736709D01*
X743927D02*
X746466D01*
Y401667D02*
Y424475D01*
X743927Y401667D02*
X746466D01*
X734170D02*
X736709D01*
Y401367D02*
Y401667D01*
Y424475D02*
Y424775D01*
X743927D01*
Y424475D02*
Y424775D01*
Y401367D02*
Y401667D01*
X736709Y401367D02*
X743927D01*
D19*
X354985Y431224D02*
X454158D01*
Y501854D01*
X354985D02*
X454158D01*
X354985Y431224D02*
Y501854D01*
X561448Y261487D02*
Y304794D01*
X589007D01*
Y261487D02*
Y304794D01*
X561448Y261487D02*
X589007D01*
D20*
X365406Y437100D02*
X369343D01*
X367375Y435132D02*
Y439069D01*
X431484Y336108D02*
X435421D01*
X433453Y334140D02*
Y338077D01*
X381051Y412210D02*
Y415360D01*
X379476Y413785D02*
X382626D01*
X457983Y406409D02*
X461132D01*
X459558Y404834D02*
Y407984D01*
X482483Y410419D02*
X485633D01*
X484058Y408845D02*
Y411994D01*
X376063Y408357D02*
Y411507D01*
X374488Y409932D02*
X377638D01*
X435249Y418203D02*
Y421352D01*
X433674Y419777D02*
X436824D01*
X440031Y424502D02*
Y427652D01*
X438456Y426077D02*
X441606D01*
X367483Y453126D02*
Y456276D01*
X365908Y454701D02*
X369058D01*
X409164Y374201D02*
X412313D01*
X410738Y372626D02*
Y375776D01*
X371849Y452964D02*
Y456114D01*
X370274Y454539D02*
X373424D01*
X392494Y477706D02*
X395644D01*
X394069Y476131D02*
Y479281D01*
X516960Y467213D02*
X520109D01*
X518535Y465638D02*
Y468788D01*
X516960Y462417D02*
X520109D01*
X518535Y460842D02*
Y463992D01*
X551675Y393123D02*
X554824D01*
X553250Y391549D02*
Y394698D01*
X551508Y387835D02*
X554657D01*
X553083Y386260D02*
Y389410D01*
X418722Y324381D02*
Y327531D01*
X417147Y325956D02*
X420297D01*
X427733Y317737D02*
X430883D01*
X429308Y316162D02*
Y319312D01*
X469273Y308370D02*
Y311519D01*
X467698Y309945D02*
X470848D01*
X448151Y317927D02*
X451301D01*
X449726Y316352D02*
Y319501D01*
X343654Y335831D02*
Y338980D01*
X342079Y337405D02*
X345229D01*
X349318Y347282D02*
Y350431D01*
X347743Y348856D02*
X350893D01*
X349191Y357345D02*
Y360494D01*
X347616Y358920D02*
X350766D01*
X349191Y367445D02*
Y370595D01*
X347616Y369020D02*
X350766D01*
X550737Y285363D02*
X553887D01*
X552312Y283788D02*
Y286937D01*
X550574Y291080D02*
X553724D01*
X552149Y289506D02*
Y292655D01*
X636481Y252592D02*
X639630D01*
X638055Y251017D02*
Y254167D01*
X649009Y252592D02*
X652158D01*
X650584Y251017D02*
Y254167D01*
X756592Y319551D02*
X759742D01*
X758167Y317977D02*
Y321126D01*
X736957Y278204D02*
Y282141D01*
X734988Y280173D02*
X738925D01*
X756683Y313204D02*
X759832D01*
X758258Y311629D02*
Y314778D01*
X756519Y325976D02*
X759669D01*
X758094Y324402D02*
Y327551D01*
X433989Y386808D02*
Y389958D01*
X432414Y388383D02*
X435564D01*
X428096Y391062D02*
Y394212D01*
X426521Y392637D02*
X429670D01*
X421793Y389084D02*
Y392233D01*
X420218Y390659D02*
X423368D01*
X696425Y287439D02*
X699575D01*
X698000Y285864D02*
Y289014D01*
X756692Y332470D02*
X759842D01*
X758267Y330896D02*
Y334045D01*
X756935Y339374D02*
X760084D01*
X758509Y337799D02*
Y340948D01*
X734091Y330124D02*
Y333273D01*
X732516Y331699D02*
X735666D01*
X846241Y344935D02*
Y348085D01*
X844666Y346510D02*
X847815D01*
X688200Y282910D02*
Y286060D01*
X686625Y284485D02*
X689774D01*
X846261Y360201D02*
Y363350D01*
X844686Y361775D02*
X847836D01*
X688228Y262203D02*
Y265353D01*
X686653Y263778D02*
X689803D01*
X846076Y372774D02*
Y375924D01*
X844501Y374349D02*
X847651D01*
X706186Y325310D02*
X709336D01*
X707761Y323735D02*
Y326885D01*
X705779Y334270D02*
X708928D01*
X707353Y332695D02*
Y335844D01*
X705167Y304829D02*
X708317D01*
X706742Y303255D02*
Y306404D01*
X705559Y315374D02*
X708708D01*
X707133Y313799D02*
Y316948D01*
X839958Y455667D02*
Y458816D01*
X838383Y457242D02*
X841533D01*
X577410Y447063D02*
Y450212D01*
X575835Y448638D02*
X578985D01*
X624748Y350196D02*
X627898D01*
X626323Y348621D02*
Y351770D01*
X643431Y382638D02*
X646581D01*
X645006Y381063D02*
Y384213D01*
X622246Y382502D02*
X625396D01*
X623821Y380927D02*
Y384077D01*
X647302Y391648D02*
Y394798D01*
X645728Y393223D02*
X648877D01*
X636003Y350239D02*
X639152D01*
X637578Y348664D02*
Y351814D01*
X620944Y337325D02*
Y340475D01*
X619370Y338900D02*
X622519D01*
X612426Y349466D02*
X615576D01*
X614001Y347891D02*
Y351041D01*
X620609Y327011D02*
Y330160D01*
X619034Y328586D02*
X622184D01*
X626820Y336529D02*
X629970D01*
X628395Y334955D02*
Y338104D01*
X606793Y351120D02*
Y354270D01*
X605219Y352695D02*
X608368D01*
X800606Y375191D02*
X804543D01*
X802574Y373223D02*
Y377160D01*
X781771Y375073D02*
X785708D01*
X783740Y373105D02*
Y377042D01*
X439177Y406406D02*
Y409556D01*
X437603Y407981D02*
X440752D01*
X433485Y400417D02*
Y403567D01*
X431910Y401992D02*
X435060D01*
X528098Y451277D02*
X531247D01*
X529673Y449702D02*
Y452852D01*
X807838Y455154D02*
X810987D01*
X809412Y453579D02*
Y456728D01*
X755960Y408046D02*
Y411195D01*
X754385Y409621D02*
X757534D01*
X755960Y419611D02*
Y422761D01*
X754385Y421186D02*
X757534D01*
X460488Y333426D02*
Y384214D01*
X532346D01*
Y333426D02*
Y384214D01*
X460488Y333426D02*
X532346D01*
X775344Y387985D02*
Y438772D01*
X703486Y387985D02*
X775344D01*
X703486D02*
Y438772D01*
X775344D01*
X656305Y387763D02*
Y438550D01*
Y387763D02*
X728163D01*
Y438550D01*
X656305D02*
X728163D01*
X312472Y474672D02*
X345543D01*
Y421522D02*
Y474672D01*
X312472Y421522D02*
X345543D01*
X312472D02*
Y474672D01*
X391048Y375835D02*
Y378984D01*
X389474Y377410D02*
X392623D01*
X396013Y375800D02*
Y378949D01*
X394438Y377375D02*
X397588D01*
X377782Y391810D02*
X380931D01*
X379356Y390235D02*
Y393385D01*
X404182Y415729D02*
X407332D01*
X405757Y414154D02*
Y417304D01*
X385774Y412164D02*
Y415314D01*
X384199Y413739D02*
X387349D01*
X377782Y398268D02*
X380931D01*
X379356Y396693D02*
Y399842D01*
X422873Y400742D02*
X426022D01*
X424447Y399167D02*
Y402317D01*
X385938Y375800D02*
Y378949D01*
X384363Y377375D02*
X387512D01*
X433404Y472463D02*
Y475613D01*
X431830Y474038D02*
X434979D01*
X409164Y378983D02*
X412313D01*
X410738Y377408D02*
Y380557D01*
X404108Y472463D02*
Y475613D01*
X402533Y474038D02*
X405683D01*
X506576Y467213D02*
X509725D01*
X508150Y465638D02*
Y468788D01*
X506576Y462417D02*
X509725D01*
X508150Y460842D02*
Y463992D01*
X506345Y388838D02*
Y391987D01*
X504770Y390413D02*
X507919D01*
X398633Y441469D02*
Y444619D01*
X397058Y443044D02*
X400207D01*
X393713Y441521D02*
Y444670D01*
X392138Y443095D02*
X395288D01*
X459933Y434352D02*
X462160Y436579D01*
X459933Y436579D02*
X462160Y434352D01*
X453130Y441155D02*
X455357Y443382D01*
X453130Y443382D02*
X455357Y441155D01*
X456532Y437754D02*
X458759Y439981D01*
X456532Y439981D02*
X458759Y437754D01*
X684437Y518189D02*
Y521339D01*
X682862Y519764D02*
X686012D01*
X659813Y499922D02*
X662962D01*
X661388Y498347D02*
Y501496D01*
X384545Y441103D02*
Y444253D01*
X382970Y442678D02*
X386119D01*
X352017Y450992D02*
X355166D01*
X353592Y449417D02*
Y452567D01*
X416746Y317733D02*
X419895D01*
X418320Y316158D02*
Y319308D01*
X474848Y311555D02*
Y314705D01*
X473273Y313130D02*
X476423D01*
X456716Y336534D02*
Y339684D01*
X455142Y338109D02*
X458291D01*
X450368Y336526D02*
Y339675D01*
X448793Y338100D02*
X451943D01*
X349186Y335831D02*
Y338980D01*
X347612Y337405D02*
X350761D01*
X359234Y364808D02*
X362384D01*
X360809Y363233D02*
Y366383D01*
X359353Y370713D02*
X362502D01*
X360927Y369138D02*
Y372287D01*
X755389Y303598D02*
Y306748D01*
X753815Y305173D02*
X756964D01*
X760656Y303525D02*
Y306675D01*
X759082Y305100D02*
X762231D01*
X743164Y339351D02*
X746314D01*
X744739Y337776D02*
Y340926D01*
X577297Y434478D02*
Y437628D01*
X575723Y436053D02*
X578872D01*
X633309Y382574D02*
X636459D01*
X634884Y380999D02*
Y384149D01*
X654077Y354367D02*
X657227D01*
X655652Y352792D02*
Y355942D01*
X654077Y349499D02*
X657227D01*
X655652Y347924D02*
Y351073D01*
X654077Y359148D02*
X657227D01*
X655652Y357573D02*
Y360723D01*
X620565Y314782D02*
Y317932D01*
X618991Y316357D02*
X622140D01*
D200*
X387752Y383987D02*
X417279D01*
X387752D02*
Y413514D01*
X417279D01*
Y383987D02*
Y413514D01*
X352808Y426076D02*
Y448124D01*
X381942Y426076D02*
Y448124D01*
X352808D02*
X381942D01*
X352808Y426076D02*
X381942D01*
X422429Y321542D02*
Y350675D01*
X444476Y321542D02*
Y350675D01*
X422429Y321542D02*
X444476D01*
X422429Y350675D02*
X444476D01*
X628242Y431412D02*
Y455238D01*
X615329D02*
X628242D01*
X615329D02*
Y457183D01*
X582573D02*
X615329D01*
X582573Y429467D02*
X615329D01*
Y431412D01*
X628242D01*
X582573Y429467D02*
Y457183D01*
X292176Y426602D02*
X309893D01*
X292176D02*
Y436444D01*
X309893D01*
Y426602D02*
Y436444D01*
X292176Y446159D02*
X309893D01*
X292176D02*
Y456002D01*
X309893D01*
Y446159D02*
Y456002D01*
X409226Y444709D02*
X428911D01*
Y481323D01*
X409226D02*
X428911D01*
X409226Y444709D02*
Y481323D01*
X379082Y409454D02*
X383019D01*
X379082Y418116D02*
X383019D01*
X379082Y409454D02*
Y418116D01*
X383019Y409454D02*
Y418116D01*
X463888Y404441D02*
Y408378D01*
X455227Y404441D02*
Y408378D01*
Y404441D02*
X463888D01*
X455227Y408378D02*
X463888D01*
X488389Y408451D02*
Y412388D01*
X479727Y408451D02*
Y412388D01*
Y408451D02*
X488389D01*
X479727Y412388D02*
X488389D01*
X374094Y414263D02*
X378031D01*
X374094Y405601D02*
X378031D01*
Y414263D01*
X374094Y405601D02*
Y414263D01*
X433280Y415447D02*
X437217D01*
X433280Y424108D02*
X437217D01*
X433280Y415447D02*
Y424108D01*
X437217Y415447D02*
Y424108D01*
X438062Y421746D02*
X441999D01*
X438062Y430407D02*
X441999D01*
X438062Y421746D02*
Y430407D01*
X441999Y421746D02*
Y430407D01*
X365515Y459032D02*
X369452D01*
X365515Y450370D02*
X369452D01*
Y459032D01*
X365515Y450370D02*
Y459032D01*
X415069Y372233D02*
Y376170D01*
X406408Y372233D02*
Y376170D01*
Y372233D02*
X415069D01*
X406408Y376170D02*
X415069D01*
X369880Y458870D02*
X373817D01*
X369880Y450209D02*
X373817D01*
Y458870D01*
X369880Y450209D02*
Y458870D01*
X389738Y475737D02*
Y479674D01*
X398399Y475737D02*
Y479674D01*
X389738D02*
X398399D01*
X389738Y475737D02*
X398399D01*
X522865Y465244D02*
Y469181D01*
X514204Y465244D02*
Y469181D01*
Y465244D02*
X522865D01*
X514204Y469181D02*
X522865D01*
Y460448D02*
Y464385D01*
X514204Y460448D02*
Y464385D01*
Y460448D02*
X522865D01*
X514204Y464385D02*
X522865D01*
X548919Y391155D02*
Y395092D01*
X557580Y391155D02*
Y395092D01*
X548919D02*
X557580D01*
X548919Y391155D02*
X557580D01*
X557413Y385866D02*
Y389803D01*
X548752Y385866D02*
Y389803D01*
Y385866D02*
X557413D01*
X548752Y389803D02*
X557413D01*
X416753Y330286D02*
X420690D01*
X416753Y321625D02*
X420690D01*
Y330286D01*
X416753Y321625D02*
Y330286D01*
X424977Y315768D02*
Y319705D01*
X433639Y315768D02*
Y319705D01*
X424977D02*
X433639D01*
X424977Y315768D02*
X433639D01*
X467305Y314275D02*
X471242D01*
X467305Y305614D02*
X471242D01*
Y314275D01*
X467305Y305614D02*
Y314275D01*
X454057Y315958D02*
Y319895D01*
X445396Y315958D02*
Y319895D01*
Y315958D02*
X454057D01*
X445396Y319895D02*
X454057D01*
X341686Y341736D02*
X345623D01*
X341686Y333075D02*
X345623D01*
Y341736D01*
X341686Y333075D02*
Y341736D01*
X347350Y344526D02*
X351287D01*
X347350Y353187D02*
X351287D01*
X347350Y344526D02*
Y353187D01*
X351287Y344526D02*
Y353187D01*
X347223Y354589D02*
X351160D01*
X347223Y363250D02*
X351160D01*
X347223Y354589D02*
Y363250D01*
X351160Y354589D02*
Y363250D01*
X347223Y364689D02*
X351160D01*
X347223Y373351D02*
X351160D01*
X347223Y364689D02*
Y373351D01*
X351160Y364689D02*
Y373351D01*
X547981Y283394D02*
Y287331D01*
X556643Y283394D02*
Y287331D01*
X547981Y283394D02*
X556643D01*
X547981Y287331D02*
X556643D01*
X556480Y289112D02*
Y293049D01*
X547818Y289112D02*
Y293049D01*
X556480D01*
X547818Y289112D02*
X556480D01*
X633725Y250624D02*
Y254561D01*
X642386Y250624D02*
Y254561D01*
X633725Y250624D02*
X642386D01*
X633725Y254561D02*
X642386D01*
X573226Y259129D02*
Y286295D01*
X640470Y259641D02*
Y285783D01*
X573226Y259129D02*
X580588D01*
X573226Y286295D02*
X580588D01*
Y250704D02*
X620588D01*
X580588Y294720D02*
X620588D01*
X580588Y250704D02*
Y259129D01*
Y286295D02*
Y294720D01*
X620588Y285783D02*
X640470D01*
X620588Y259641D02*
X640470D01*
X620588Y285783D02*
Y294720D01*
Y250704D02*
Y259641D01*
X646253Y250624D02*
Y254561D01*
X654914Y250624D02*
Y254561D01*
X646253Y250624D02*
X654914D01*
X646253Y254561D02*
X654914D01*
X762498Y317583D02*
Y321520D01*
X753836Y317583D02*
Y321520D01*
Y317583D02*
X762498D01*
X753836Y321520D02*
X762498D01*
X720027Y271511D02*
X753886D01*
X720027Y288834D02*
X753886D01*
Y271511D02*
Y288834D01*
X720027Y271511D02*
Y288834D01*
X762588Y311235D02*
Y315172D01*
X753927Y311235D02*
Y315172D01*
Y311235D02*
X762588D01*
X753927Y315172D02*
X762588D01*
X762425Y324008D02*
Y327945D01*
X753763Y324008D02*
Y327945D01*
Y324008D02*
X762425D01*
X753763Y327945D02*
X762425D01*
X432020Y384052D02*
X435957D01*
X432020Y392714D02*
X435957D01*
X432020Y384052D02*
Y392714D01*
X435957Y384052D02*
Y392714D01*
X426127Y388306D02*
X430064D01*
X426127Y396968D02*
X430064D01*
X426127Y388306D02*
Y396968D01*
X430064Y388306D02*
Y396968D01*
X419825Y386328D02*
X423762D01*
X419825Y394989D02*
X423762D01*
X419825Y386328D02*
Y394989D01*
X423762Y386328D02*
Y394989D01*
X702330Y285470D02*
Y289407D01*
X693669Y285470D02*
Y289407D01*
Y285470D02*
X702330D01*
X693669Y289407D02*
X702330D01*
X762598Y330502D02*
Y334439D01*
X753936Y330502D02*
Y334439D01*
Y330502D02*
X762598D01*
X753936Y334439D02*
X762598D01*
X754179Y337405D02*
Y341342D01*
X762840Y337405D02*
Y341342D01*
X754179D02*
X762840D01*
X754179Y337405D02*
X762840D01*
X732123Y336029D02*
X736060D01*
X732123Y327368D02*
X736060D01*
Y336029D01*
X732123Y327368D02*
Y336029D01*
X844272Y342180D02*
X848209D01*
X844272Y350841D02*
X848209D01*
X844272Y342180D02*
Y350841D01*
X848209Y342180D02*
Y350841D01*
X686231Y288816D02*
X690168D01*
X686231Y280154D02*
X690168D01*
Y288816D01*
X686231Y280154D02*
Y288816D01*
X844293Y357445D02*
X848230D01*
X844293Y366106D02*
X848230D01*
X844293Y357445D02*
Y366106D01*
X848230Y357445D02*
Y366106D01*
X686260Y268109D02*
X690197D01*
X686260Y259447D02*
X690197D01*
Y268109D01*
X686260Y259447D02*
Y268109D01*
X844108Y370018D02*
X848045D01*
X844108Y378680D02*
X848045D01*
X844108Y370018D02*
Y378680D01*
X848045Y370018D02*
Y378680D01*
X712092Y323341D02*
Y327278D01*
X703431Y323341D02*
Y327278D01*
Y323341D02*
X712092D01*
X703431Y327278D02*
X712092D01*
X711684Y332301D02*
Y336238D01*
X703023Y332301D02*
Y336238D01*
Y332301D02*
X711684D01*
X703023Y336238D02*
X711684D01*
X711072Y302861D02*
Y306798D01*
X702411Y302861D02*
Y306798D01*
Y302861D02*
X711072D01*
X702411Y306798D02*
X711072D01*
X711464Y313405D02*
Y317342D01*
X702803Y313405D02*
Y317342D01*
Y313405D02*
X711464D01*
X702803Y317342D02*
X711464D01*
X837989Y461572D02*
X841926D01*
X837989Y452911D02*
X841926D01*
Y461572D01*
X837989Y452911D02*
Y461572D01*
X575441Y452968D02*
X579378D01*
X575441Y444307D02*
X579378D01*
Y452968D01*
X575441Y444307D02*
Y452968D01*
X621992Y348227D02*
Y352164D01*
X630654Y348227D02*
Y352164D01*
X621992D02*
X630654D01*
X621992Y348227D02*
X630654D01*
X640675Y380669D02*
Y384606D01*
X649337Y380669D02*
Y384606D01*
X640675D02*
X649337D01*
X640675Y380669D02*
X649337D01*
X619490Y380533D02*
Y384470D01*
X628152Y380533D02*
Y384470D01*
X619490D02*
X628152D01*
X619490Y380533D02*
X628152D01*
X645334Y388892D02*
X649271D01*
X645334Y397554D02*
X649271D01*
X645334Y388892D02*
Y397554D01*
X649271Y388892D02*
Y397554D01*
X633247Y348270D02*
Y352207D01*
X641908Y348270D02*
Y352207D01*
X633247D02*
X641908D01*
X633247Y348270D02*
X641908D01*
X618976Y334569D02*
X622913D01*
X618976Y343231D02*
X622913D01*
X618976Y334569D02*
Y343231D01*
X622913Y334569D02*
Y343231D01*
X618332Y347498D02*
Y351435D01*
X609670Y347498D02*
Y351435D01*
Y347498D02*
X618332D01*
X609670Y351435D02*
X618332D01*
X618640Y324255D02*
X622577D01*
X618640Y332916D02*
X622577D01*
X618640Y324255D02*
Y332916D01*
X622577Y324255D02*
Y332916D01*
X632726Y334561D02*
Y338498D01*
X624064Y334561D02*
Y338498D01*
Y334561D02*
X632726D01*
X624064Y338498D02*
X632726D01*
X604825Y348364D02*
X608762D01*
X604825Y357026D02*
X608762D01*
X604825Y348364D02*
Y357026D01*
X608762Y348364D02*
Y357026D01*
X811236Y358262D02*
Y392120D01*
X793913Y358262D02*
Y392120D01*
X811236D01*
X793913Y358262D02*
X811236D01*
X792401Y358144D02*
Y392003D01*
X775078Y358144D02*
Y392003D01*
X792401D01*
X775078Y358144D02*
X792401D01*
X437209Y412312D02*
X441146D01*
X437209Y403650D02*
X441146D01*
Y412312D01*
X437209Y403650D02*
Y412312D01*
X431517Y397661D02*
X435454D01*
X431517Y406322D02*
X435454D01*
X431517Y397661D02*
Y406322D01*
X435454Y397661D02*
Y406322D01*
X525342Y449308D02*
Y453245D01*
X534003Y449308D02*
Y453245D01*
X525342D02*
X534003D01*
X525342Y449308D02*
X534003D01*
X805082Y453185D02*
Y457122D01*
X813743Y453185D02*
Y457122D01*
X805082D02*
X813743D01*
X805082Y453185D02*
X813743D01*
X753991Y405290D02*
X757928D01*
X753991Y413951D02*
X757928D01*
Y405290D02*
Y413951D01*
X753991Y405290D02*
Y413951D01*
X753991Y425517D02*
X757928D01*
X753991Y416855D02*
X757928D01*
X753991D02*
Y425517D01*
X757928Y416855D02*
Y425517D01*
X558560Y395900D02*
Y411057D01*
X545095Y395900D02*
X558560D01*
X545095D02*
Y411057D01*
X558560D01*
X472363Y266047D02*
Y288882D01*
X407324D02*
X472363D01*
X407324Y266047D02*
Y288882D01*
Y266047D02*
X472363D01*
X539572Y266028D02*
Y288863D01*
X474533D02*
X539572D01*
X474533Y266028D02*
Y288863D01*
Y266028D02*
X539572D01*
X546627Y292805D02*
X561784D01*
Y306270D01*
X546627D02*
X561784D01*
X546627Y292805D02*
Y306270D01*
X558271Y281812D02*
X573429D01*
Y295276D01*
X558271D02*
X573429D01*
X558271Y281812D02*
Y295276D01*
X597343Y296537D02*
Y320364D01*
X610257D01*
Y322308D01*
X643013D01*
X610257Y294592D02*
X643013D01*
X610257D02*
Y296537D01*
X597343D02*
X610257D01*
X643013Y294592D02*
Y322308D01*
X790704Y281551D02*
Y289957D01*
X767318D02*
X790704D01*
X767318D02*
Y320114D01*
X790704D01*
Y328520D01*
X785204D02*
X833787D01*
X790803Y281551D02*
X833787D01*
Y328520D01*
X803883Y439664D02*
X821599D01*
X803883D02*
Y449506D01*
X821599D01*
Y439664D02*
Y449506D01*
X596463Y288640D02*
Y303403D01*
X593117Y288640D02*
X596463D01*
X593117Y266986D02*
Y288640D01*
Y266986D02*
X596463D01*
Y252222D02*
Y266986D01*
Y252222D02*
X647644D01*
Y266986D01*
X650990D01*
Y288640D01*
X647644D02*
X650990D01*
X647644D02*
Y303403D01*
X596463D02*
X647644D01*
X347274Y462179D02*
X383889D01*
X347274D02*
Y485997D01*
X383889D01*
Y462179D02*
Y485997D01*
X509195Y545730D02*
X540297D01*
X509195Y521124D02*
Y545730D01*
Y521124D02*
X540297D01*
Y545730D01*
X509205Y514459D02*
X540307D01*
X509205Y489853D02*
Y514459D01*
Y489853D02*
X540307D01*
Y514459D01*
X328568Y314351D02*
X348560Y290525D01*
X367410Y306342D01*
X347417Y330168D02*
X367410Y306342D01*
X328568Y314351D02*
X347417Y330168D01*
X381487Y247128D02*
X405614Y267374D01*
X378030Y300247D02*
X405614Y267374D01*
X353902Y280002D02*
X378030Y300247D01*
X353902Y280002D02*
X381487Y247128D01*
X678243Y504082D02*
Y535184D01*
X653636D02*
X678243D01*
X653636Y504082D02*
Y535184D01*
Y504082D02*
X678243D01*
X329008Y448097D02*
X332944D01*
X329008D02*
Y452034D01*
Y448097D02*
Y452034D01*
X325071Y448097D02*
X329008D01*
Y444160D02*
Y448097D01*
X817661Y402674D02*
Y433776D01*
X793054D02*
X817661D01*
X793054Y402674D02*
Y433776D01*
Y402674D02*
X817661D01*
X328159Y487316D02*
X345876D01*
Y477473D02*
Y487316D01*
X328159Y477473D02*
X345876D01*
X328159D02*
Y487316D01*
X381087Y354260D02*
X398804D01*
Y344418D02*
Y354260D01*
X381087Y344418D02*
X398804D01*
X381087D02*
Y354260D01*
X529564Y429373D02*
Y447090D01*
X519722Y429373D02*
X529564D01*
X519722D02*
Y447090D01*
X529564D01*
X457207Y509962D02*
X474924D01*
Y500119D02*
Y509962D01*
X457207Y500119D02*
X474924D01*
X457207D02*
Y509962D01*
X457336Y497363D02*
X475052D01*
Y487521D02*
Y497363D01*
X457336Y487521D02*
X475052D01*
X457336D02*
Y497363D01*
X498318Y455701D02*
X516034D01*
Y445859D02*
Y455701D01*
X498318Y445859D02*
X516034D01*
X498318D02*
Y455701D01*
X799118Y274522D02*
X816835D01*
Y264679D02*
Y274522D01*
X799118Y264679D02*
X816835D01*
X799118D02*
Y274522D01*
X754149Y259475D02*
X771866D01*
X754149D02*
Y269318D01*
X771866D01*
Y259475D02*
Y269318D01*
X719635Y259475D02*
X737352D01*
X719635D02*
Y269318D01*
X737352D01*
Y259475D02*
Y269318D01*
X619836Y410252D02*
Y427851D01*
Y410252D02*
X628592D01*
Y427851D01*
X619836D02*
X628592D01*
X422687Y287829D02*
X460718D01*
X422687D02*
Y314286D01*
X460718D01*
Y287829D02*
Y314286D01*
X485808Y287683D02*
X523840D01*
X485808D02*
Y314140D01*
X523840D01*
Y287683D02*
Y314140D01*
X368416Y325157D02*
Y341732D01*
X355030Y325157D02*
X368416D01*
X355030D02*
Y341732D01*
X368416D01*
X671809Y220244D02*
Y244071D01*
X684722D01*
Y246016D01*
X717478D01*
X684722Y218299D02*
X717478D01*
X684722D02*
Y220244D01*
X671809D02*
X684722D01*
X717478Y218299D02*
Y246016D01*
X389080Y373079D02*
X393017D01*
X389080Y381740D02*
X393017D01*
X389080Y373079D02*
Y381740D01*
X393017Y373079D02*
Y381740D01*
X394045Y373044D02*
X397982D01*
X394045Y381705D02*
X397982D01*
X394045Y373044D02*
Y381705D01*
X397982Y373044D02*
Y381705D01*
X375026Y389841D02*
Y393778D01*
X383687Y389841D02*
Y393778D01*
X375026D02*
X383687D01*
X375026Y389841D02*
X383687D01*
X401426Y413761D02*
Y417698D01*
X410088Y413761D02*
Y417698D01*
X401426D02*
X410088D01*
X401426Y413761D02*
X410088D01*
X383805Y418070D02*
X387742D01*
X383805Y409409D02*
X387742D01*
Y418070D01*
X383805Y409409D02*
Y418070D01*
X375026Y396299D02*
Y400236D01*
X383687Y396299D02*
Y400236D01*
X375026D02*
X383687D01*
X375026Y396299D02*
X383687D01*
X428778Y398773D02*
Y402710D01*
X420117Y398773D02*
Y402710D01*
Y398773D02*
X428778D01*
X420117Y402710D02*
X428778D01*
X383969Y373044D02*
X387906D01*
X383969Y381705D02*
X387906D01*
X383969Y373044D02*
Y381705D01*
X387906Y373044D02*
Y381705D01*
X431436Y478369D02*
X435373D01*
X431436Y469707D02*
X435373D01*
Y478369D01*
X431436Y469707D02*
Y478369D01*
X415069Y377014D02*
Y380951D01*
X406408Y377014D02*
Y380951D01*
Y377014D02*
X415069D01*
X406408Y380951D02*
X415069D01*
X402140Y478369D02*
X406076D01*
X402140Y469707D02*
X406076D01*
Y478369D01*
X402140Y469707D02*
Y478369D01*
X512481Y465244D02*
Y469181D01*
X503820Y465244D02*
Y469181D01*
Y465244D02*
X512481D01*
X503820Y469181D02*
X512481D01*
Y460448D02*
Y464385D01*
X503820Y460448D02*
Y464385D01*
Y460448D02*
X512481D01*
X503820Y464385D02*
X512481D01*
X504376Y394743D02*
X508313D01*
X504376Y386082D02*
X508313D01*
X504376D02*
Y394743D01*
X508313Y386082D02*
Y394743D01*
X396664Y438713D02*
X400601D01*
X396664Y447375D02*
X400601D01*
X396664Y438713D02*
Y447375D01*
X400601Y438713D02*
Y447375D01*
X391744Y438765D02*
X395682D01*
X391744Y447426D02*
X395682D01*
X391744Y438765D02*
Y447426D01*
X395682Y438765D02*
Y447426D01*
X462717Y439920D02*
X465501Y437136D01*
X456593Y433795D02*
X459376Y431011D01*
X456593Y433795D02*
X462717Y439920D01*
X459376Y431011D02*
X465501Y437136D01*
X455914Y446723D02*
X458698Y443939D01*
X449789Y440598D02*
X452573Y437814D01*
X449789Y440598D02*
X455914Y446723D01*
X452573Y437814D02*
X458698Y443939D01*
X459316Y443321D02*
X462099Y440538D01*
X453191Y437197D02*
X455975Y434413D01*
X453191Y437197D02*
X459316Y443321D01*
X455975Y434413D02*
X462099Y440538D01*
X682469Y524095D02*
X686406D01*
X682469Y515433D02*
X686406D01*
Y524095D01*
X682469Y515433D02*
Y524095D01*
X657057Y497953D02*
Y501890D01*
X665718Y497953D02*
Y501890D01*
X657057D02*
X665718D01*
X657057Y497953D02*
X665718D01*
X382576Y438347D02*
X386513D01*
X382576Y447009D02*
X386513D01*
X382576Y438347D02*
Y447009D01*
X386513Y438347D02*
Y447009D01*
X349261Y449024D02*
Y452961D01*
X357922Y449024D02*
Y452961D01*
X349261D02*
X357922D01*
X349261Y449024D02*
X357922D01*
X413990Y315765D02*
Y319702D01*
X422651Y315765D02*
Y319702D01*
X413990D02*
X422651D01*
X413990Y315765D02*
X422651D01*
X472880Y308800D02*
X476817D01*
X472880Y317461D02*
X476817D01*
X472880Y308800D02*
Y317461D01*
X476817Y308800D02*
Y317461D01*
X454748Y342440D02*
X458685D01*
X454748Y333778D02*
X458685D01*
Y342440D01*
X454748Y333778D02*
Y342440D01*
X448400Y342431D02*
X452337D01*
X448400Y333770D02*
X452337D01*
Y342431D01*
X448400Y333770D02*
Y342431D01*
X347218Y333075D02*
X351155D01*
X347218Y341736D02*
X351155D01*
X347218Y333075D02*
Y341736D01*
X351155Y333075D02*
Y341736D01*
X356479Y362840D02*
Y366776D01*
X365140Y362840D02*
Y366776D01*
X356479D02*
X365140D01*
X356479Y362840D02*
X365140D01*
X365258Y368744D02*
Y372681D01*
X356597Y368744D02*
Y372681D01*
Y368744D02*
X365258D01*
X356597Y372681D02*
X365258D01*
X753421Y300842D02*
X757358D01*
X753421Y309504D02*
X757358D01*
X753421Y300842D02*
Y309504D01*
X757358Y300842D02*
Y309504D01*
X758688Y309431D02*
X762625D01*
X758688Y300769D02*
X762625D01*
Y309431D01*
X758688Y300769D02*
Y309431D01*
X720009Y236250D02*
Y254423D01*
X732670D01*
Y236250D02*
Y254423D01*
X720009Y236250D02*
X732670D01*
X749069Y337383D02*
Y341319D01*
X740408Y337383D02*
Y341319D01*
Y337383D02*
X749069D01*
X740408Y341319D02*
X749069D01*
X575329Y431722D02*
X579266D01*
X575329Y440384D02*
X579266D01*
X575329Y431722D02*
Y440384D01*
X579266Y431722D02*
Y440384D01*
X639215Y380605D02*
Y384542D01*
X630553Y380605D02*
Y384542D01*
Y380605D02*
X639215D01*
X630553Y384542D02*
X639215D01*
X659983Y352398D02*
Y356335D01*
X651321Y352398D02*
Y356335D01*
Y352398D02*
X659983D01*
X651321Y356335D02*
X659983D01*
Y347530D02*
Y351467D01*
X651321Y347530D02*
Y351467D01*
Y347530D02*
X659983D01*
X651321Y351467D02*
X659983D01*
X651321Y357179D02*
Y361117D01*
X659983Y357179D02*
Y361117D01*
X651321D02*
X659983D01*
X651321Y357179D02*
X659983D01*
X618597Y312026D02*
X622534D01*
X618597Y320688D02*
X622534D01*
X618597Y312026D02*
Y320688D01*
X622534Y312026D02*
Y320688D01*
X437800Y444592D02*
X457485D01*
Y481206D01*
X437800D02*
X457485D01*
X437800Y444592D02*
Y481206D01*
X632679Y215012D02*
Y232729D01*
Y215012D02*
X642522D01*
Y232729D01*
X632679D02*
X642522D01*
D201*
X851906Y308592D02*
Y334596D01*
X841080Y308592D02*
X851906D01*
X841080D02*
Y334596D01*
X851906D01*
X834536Y474895D02*
X860540D01*
Y464068D02*
Y474895D01*
X834536Y464068D02*
X860540D01*
X834536D02*
Y474895D01*
X573402Y428615D02*
Y454619D01*
X562575Y428615D02*
X573402D01*
X562575D02*
Y454619D01*
X573402D01*
X711161Y284081D02*
X718287D01*
X711161Y297270D02*
X718287D01*
X711161Y284081D02*
Y297270D01*
X718287Y284081D02*
Y297270D01*
X680440Y332484D02*
X687566D01*
X680440Y319295D02*
X687566D01*
Y332484D01*
X680440Y319295D02*
Y332484D01*
X691441Y332671D02*
X698567D01*
X691441Y319482D02*
X698567D01*
Y332671D01*
X691441Y319482D02*
Y332671D01*
X664265Y326189D02*
Y333315D01*
X651077Y326189D02*
Y333315D01*
X664265D01*
X651077Y326189D02*
X664265D01*
Y301526D02*
Y308652D01*
X651077Y301526D02*
Y308652D01*
X664265D01*
X651077Y301526D02*
X664265D01*
Y309747D02*
Y316873D01*
X651077Y309747D02*
Y316873D01*
X664265D01*
X651077Y309747D02*
X664265D01*
Y317968D02*
Y325094D01*
X651077Y317968D02*
Y325094D01*
X664265D01*
X651077Y317968D02*
X664265D01*
Y334410D02*
Y341536D01*
X651077Y334410D02*
Y341536D01*
X664265D01*
X651077Y334410D02*
X664265D01*
X680206Y302430D02*
X687332D01*
X680206Y315619D02*
X687332D01*
X680206Y302430D02*
Y315619D01*
X687332Y302430D02*
Y315619D01*
X691436Y302430D02*
X698562D01*
X691436Y315619D02*
X698562D01*
X691436Y302430D02*
Y315619D01*
X698562Y302430D02*
Y315619D01*
X630485Y437370D02*
X637611D01*
X630485Y450559D02*
X637611D01*
X630485Y437370D02*
Y450559D01*
X637611Y437370D02*
Y450559D01*
X620456Y386692D02*
X627582D01*
X620456Y399881D02*
X627582D01*
X620456Y386692D02*
Y399881D01*
X627582Y386692D02*
Y399881D01*
X636597Y386692D02*
X643723D01*
X636597Y399881D02*
X643723D01*
X636597Y386692D02*
Y399881D01*
X643723Y386692D02*
Y399881D01*
X628402Y386692D02*
X635528D01*
X628402Y399881D02*
X635528D01*
X628402Y386692D02*
Y399881D01*
X635528Y386692D02*
Y399881D01*
X640219Y305070D02*
Y312196D01*
X627030Y305070D02*
Y312196D01*
Y305070D02*
X640219D01*
X627030Y312196D02*
X640219D01*
X640295Y321061D02*
Y328187D01*
X627106Y321061D02*
Y328187D01*
Y321061D02*
X640295D01*
X627106Y328187D02*
X640295D01*
Y313281D02*
Y320407D01*
X627106Y313281D02*
Y320407D01*
Y313281D02*
X640295D01*
X627106Y320407D02*
X640295D01*
X588778Y348213D02*
X595904D01*
X588778Y361402D02*
X595904D01*
X588778Y348213D02*
Y361402D01*
X595904Y348213D02*
Y361402D01*
X576468Y348213D02*
X583594D01*
X576468Y361402D02*
X583594D01*
X576468Y348213D02*
Y361402D01*
X583594Y348213D02*
Y361402D01*
X564158Y348213D02*
X571284D01*
X564158Y361402D02*
X571284D01*
X564158Y348213D02*
Y361402D01*
X571284Y348213D02*
Y361402D01*
M02*
