G04*
G04 #@! TF.GenerationSoftware,Altium Limited,Altium Designer,21.7.2 (23)*
G04*
G04 Layer_Color=16711935*
%FSLAX25Y25*%
%MOIN*%
G70*
G04*
G04 #@! TF.SameCoordinates,A0010EF7-2AB2-453B-8453-4F0255DAD4E6*
G04*
G04*
G04 #@! TF.FilePolarity,Positive*
G04*
G01*
G75*
%ADD10C,0.00787*%
%ADD14C,0.01500*%
%ADD15C,0.00600*%
%ADD16C,0.02000*%
%ADD19C,0.00500*%
%ADD20C,0.00394*%
%ADD21C,0.00400*%
%ADD25C,0.00300*%
%ADD192C,0.00000*%
%ADD196C,0.00472*%
%ADD199C,0.00100*%
G36*
X590607Y317711D02*
X581999D01*
Y319796D01*
X590607D01*
Y317711D01*
D02*
G37*
G36*
X593787Y303475D02*
X578818D01*
Y305646D01*
X593787D01*
Y303475D01*
D02*
G37*
G36*
X579544Y297779D02*
X570761D01*
Y299258D01*
X579544D01*
Y297779D01*
D02*
G37*
G36*
X590607Y297779D02*
X582000D01*
Y299896D01*
X590607D01*
Y297779D01*
D02*
G37*
G36*
X579554Y266271D02*
X570761D01*
Y269122D01*
X579554D01*
Y266271D01*
D02*
G37*
D10*
X391885Y382215D02*
X391098D01*
X391885D01*
X629817Y434270D02*
X629030D01*
X629817D01*
X408832Y477190D02*
X408045D01*
X408832D01*
X556060Y412514D02*
X555272D01*
X556060D01*
X545564Y295699D02*
X544776D01*
X545564D01*
X557208Y284705D02*
X556421D01*
X557208D01*
X596556Y299395D02*
X595768D01*
X596556D01*
X776196Y321571D02*
X775409D01*
X776196D01*
X378967Y464245D02*
X378180D01*
X378967D01*
X530061Y547207D02*
X529273D01*
X530061D01*
X530071Y515935D02*
X529283D01*
X530071D01*
X334663Y305259D02*
X333876D01*
X334663D01*
X680113Y514712D02*
X679325D01*
X680113D01*
X819531Y413304D02*
X818743D01*
X819531D01*
X463750Y300664D02*
X462962D01*
X463750D01*
X526871Y300518D02*
X526084D01*
X526871D01*
X366841Y343287D02*
X366054D01*
X366841D01*
X671021Y223103D02*
X670234D01*
X671021D01*
X437406Y477072D02*
X436619D01*
X437406D01*
X505960Y339135D02*
Y378505D01*
X469543D02*
X505960D01*
X469543Y339135D02*
Y378505D01*
Y339135D02*
X505960D01*
X729872Y393694D02*
Y433064D01*
Y393694D02*
X766289D01*
Y433064D01*
X729872D02*
X766289D01*
X701777Y393471D02*
Y432841D01*
X665360Y393471D02*
X701777D01*
X665360D02*
Y432841D01*
X701777D01*
X381038Y249194D02*
X396118Y261847D01*
X370938Y291855D02*
X396118Y261847D01*
X355858Y279202D02*
X370938Y291855D01*
X696738Y499567D02*
Y537560D01*
X735714D01*
Y499567D02*
Y537560D01*
X696738Y499567D02*
X735714D01*
D14*
X469333Y269921D02*
X468733Y270521D01*
X468133Y269921D01*
X468733Y269321D01*
X469333Y269921D01*
X536543Y269902D02*
X535943Y270502D01*
X535343Y269902D01*
X535943Y269302D01*
X536543Y269902D01*
D15*
X525491Y393419D02*
X527491D01*
Y389119D02*
Y393419D01*
X525491Y389119D02*
X527491D01*
X525491D02*
Y393419D01*
X520491D02*
X522491D01*
Y389119D02*
Y393419D01*
X520491Y389119D02*
X522491D01*
X520491D02*
Y393419D01*
X515491D02*
X517491D01*
Y389119D02*
Y393419D01*
X515491Y389119D02*
X517491D01*
X515491D02*
Y393419D01*
X510491D02*
X512491D01*
Y389119D02*
Y393419D01*
X510491Y389119D02*
X512491D01*
X510491D02*
Y393419D01*
Y409219D02*
X512491D01*
X510491D02*
Y413519D01*
X512491D01*
Y409219D02*
Y413519D01*
X515491Y409219D02*
X517491D01*
X515491D02*
Y413519D01*
X517491D01*
Y409219D02*
Y413519D01*
X520491Y409219D02*
X522491D01*
X520491D02*
Y413519D01*
X522491D01*
Y409219D02*
Y413519D01*
X525491Y409219D02*
X527491D01*
X525491D02*
Y413519D01*
X527491D01*
Y409219D02*
Y413519D01*
X509191Y393419D02*
Y409219D01*
X528791D01*
Y402519D02*
Y409219D01*
Y400119D02*
Y402519D01*
Y393419D02*
Y400119D01*
X509191Y393419D02*
X528791D01*
X596808Y309650D02*
Y312450D01*
Y309650D02*
X614508D01*
Y312450D01*
X596808D02*
X614508D01*
X596808Y314650D02*
Y317450D01*
Y314650D02*
X614508D01*
Y317450D01*
X596808D02*
X614508D01*
X596808Y319650D02*
Y322450D01*
Y319650D02*
X614508D01*
Y322450D01*
X596808D02*
X614508D01*
X596808Y324650D02*
Y327450D01*
Y324650D02*
X614508D01*
Y327450D01*
X596808D02*
X614508D01*
X596808Y329650D02*
Y332450D01*
Y329650D02*
X614508D01*
Y332450D01*
X596808D02*
X614508D01*
X596808Y334650D02*
Y337450D01*
Y334650D02*
X614508D01*
Y337450D01*
X596808D02*
X614508D01*
X596808Y339650D02*
Y342450D01*
Y339650D02*
X614508D01*
Y342450D01*
X596808D02*
X614508D01*
X596808Y306050D02*
Y346050D01*
X558008D02*
X596808D01*
X558008Y306050D02*
Y346050D01*
Y306050D02*
X596808D01*
D16*
X473451Y519761D02*
X473100Y520725D01*
X472211Y521238D01*
X471201Y521060D01*
X470541Y520274D01*
Y519248D01*
X471201Y518462D01*
X472211Y518284D01*
X473100Y518797D01*
X473451Y519761D01*
D19*
X416295Y384971D02*
Y412530D01*
X388736D02*
X416295D01*
X388736Y384971D02*
Y412530D01*
Y384971D02*
X416295D01*
X613907Y429825D02*
Y456825D01*
X590348Y429825D02*
X613907D01*
X590408D02*
Y456825D01*
X590348D02*
X613907D01*
X410210Y454158D02*
X427927D01*
Y471875D01*
X410210D02*
X427927D01*
X410210Y454158D02*
Y471875D01*
X546080Y406037D02*
X557576D01*
X546080Y400919D02*
Y406037D01*
Y400919D02*
X557576D01*
Y406037D01*
X408584Y271921D02*
Y286952D01*
X471103Y271921D02*
Y286952D01*
X408584D02*
X471103D01*
X408584Y271921D02*
X471103D01*
X475793Y271902D02*
Y286933D01*
X538313Y271902D02*
Y286933D01*
X475793D02*
X538313D01*
X475793Y271902D02*
X538313D01*
X551647Y293789D02*
Y305285D01*
X556765D01*
Y293789D02*
Y305285D01*
X551647Y293789D02*
X556765D01*
X563291Y282796D02*
Y294292D01*
X568409D01*
Y282796D02*
Y294292D01*
X563291Y282796D02*
X568409D01*
X611678Y294950D02*
Y321950D01*
Y294950D02*
X635237D01*
X635178D02*
Y321950D01*
X611678D02*
X635237D01*
X791689Y285035D02*
Y325036D01*
X821937D01*
X791689Y285035D02*
X821937D01*
Y325036D01*
X597447Y253206D02*
Y302419D01*
Y253206D02*
X646660D01*
Y302419D01*
X597447D02*
X646660D01*
X349834Y467493D02*
X381330D01*
X349834D02*
Y484226D01*
X381330D01*
Y467493D02*
Y484226D01*
X510179Y544746D02*
X539313D01*
X510179Y522108D02*
Y544746D01*
Y522108D02*
X539313D01*
Y544746D01*
X510189Y513475D02*
X539323D01*
X510189Y490837D02*
Y513475D01*
Y490837D02*
X539323D01*
Y513475D01*
X329955Y314229D02*
X348681Y291912D01*
X366023Y306463D01*
X347296Y328781D02*
X366023Y306463D01*
X329955Y314229D02*
X347296Y328781D01*
X359985Y436224D02*
Y496854D01*
Y436224D02*
X449158D01*
Y496854D01*
X359985D02*
X449158D01*
X450158Y457208D02*
X454158Y459708D01*
Y454708D02*
Y459708D01*
X450158Y457208D02*
X454158Y454708D01*
X677258Y505066D02*
Y534200D01*
X654621D02*
X677258D01*
X654621Y505066D02*
Y534200D01*
Y505066D02*
X677258D01*
X816676Y403658D02*
Y432792D01*
X794039D02*
X816676D01*
X794039Y403658D02*
Y432792D01*
Y403658D02*
X816676D01*
X620867Y412634D02*
Y425469D01*
Y412634D02*
X627560D01*
Y425469D01*
X620867D02*
X627560D01*
X428209Y289434D02*
X455197D01*
X428209D02*
Y312682D01*
X455197D01*
Y289434D02*
Y312682D01*
X491330Y289287D02*
X518318D01*
X491330D02*
Y312535D01*
X518318D01*
Y289287D02*
Y312535D01*
X356014Y336397D02*
X367432D01*
X356014Y330492D02*
Y336397D01*
Y330492D02*
X367432D01*
Y336397D01*
X686143Y218658D02*
Y245658D01*
Y218658D02*
X709702D01*
X709643D02*
Y245658D01*
X686143D02*
X709702D01*
X438785Y454041D02*
X456501D01*
Y471758D01*
X438785D02*
X456501D01*
X438785Y454041D02*
Y471758D01*
D20*
X364225Y443399D02*
X363780Y444323D01*
X362781Y444551D01*
X361980Y443912D01*
Y442887D01*
X362781Y442248D01*
X363780Y442476D01*
X364225Y443399D01*
X441917Y340439D02*
X441653Y341423D01*
X440933Y342144D01*
X439949Y342408D01*
X438964Y342144D01*
X438244Y341423D01*
X437980Y340439D01*
X438244Y339455D01*
X438964Y338734D01*
X439949Y338471D01*
X440933Y338734D01*
X441653Y339455D01*
X441917Y340439D01*
X359501Y427257D02*
X375249D01*
X359501D02*
Y446943D01*
X375249Y427257D02*
Y446943D01*
X359501D02*
X375249D01*
X423413Y328234D02*
Y343982D01*
X443492Y328234D02*
Y343982D01*
X423413Y328234D02*
X443492D01*
X423413Y343982D02*
X443492D01*
X379476Y410636D02*
X382626D01*
X379476Y416935D02*
X382626D01*
X379476Y410636D02*
Y416935D01*
X382626Y410636D02*
Y416935D01*
X462707Y404834D02*
Y407984D01*
X456408Y404834D02*
Y407984D01*
Y404834D02*
X462707D01*
X456408Y407984D02*
X462707D01*
X487208Y408845D02*
Y411994D01*
X480908Y408845D02*
Y411994D01*
Y408845D02*
X487208D01*
X480908Y411994D02*
X487208D01*
X374488Y413082D02*
X377638D01*
X374488Y406782D02*
X377638D01*
Y413082D01*
X374488Y406782D02*
Y413082D01*
X433674Y416628D02*
X436824D01*
X433674Y422927D02*
X436824D01*
X433674Y416628D02*
Y422927D01*
X436824Y416628D02*
Y422927D01*
X438456D02*
X441606D01*
X438456Y429226D02*
X441606D01*
X438456Y422927D02*
Y429226D01*
X441606Y422927D02*
Y429226D01*
X365908Y457851D02*
X369058D01*
X365908Y451551D02*
X369058D01*
Y457851D01*
X365908Y451551D02*
Y457851D01*
X413888Y372626D02*
Y375776D01*
X407589Y372626D02*
Y375776D01*
Y372626D02*
X413888D01*
X407589Y375776D02*
X413888D01*
X370274Y457689D02*
X373424D01*
X370274Y451390D02*
X373424D01*
Y457689D01*
X370274Y451390D02*
Y457689D01*
X390919Y476131D02*
Y479281D01*
X397218Y476131D02*
Y479281D01*
X390919D02*
X397218D01*
X390919Y476131D02*
X397218D01*
X521684Y465638D02*
Y468788D01*
X515385Y465638D02*
Y468788D01*
Y465638D02*
X521684D01*
X515385Y468788D02*
X521684D01*
Y460842D02*
Y463992D01*
X515385Y460842D02*
Y463992D01*
Y460842D02*
X521684D01*
X515385Y463992D02*
X521684D01*
X550100Y391549D02*
Y394698D01*
X556399Y391549D02*
Y394698D01*
X550100D02*
X556399D01*
X550100Y391549D02*
X556399D01*
X556232Y386260D02*
Y389410D01*
X549933Y386260D02*
Y389410D01*
Y386260D02*
X556232D01*
X549933Y389410D02*
X556232D01*
X417147Y329105D02*
X420297D01*
X417147Y322806D02*
X420297D01*
Y329105D01*
X417147Y322806D02*
Y329105D01*
X426159Y316162D02*
Y319312D01*
X432458Y316162D02*
Y319312D01*
X426159D02*
X432458D01*
X426159Y316162D02*
X432458D01*
X467698Y313094D02*
X470848D01*
X467698Y306795D02*
X470848D01*
Y313094D01*
X467698Y306795D02*
Y313094D01*
X452876Y316352D02*
Y319501D01*
X446577Y316352D02*
Y319501D01*
Y316352D02*
X452876D01*
X446577Y319501D02*
X452876D01*
X342079Y340555D02*
X345229D01*
X342079Y334256D02*
X345229D01*
Y340555D01*
X342079Y334256D02*
Y340555D01*
X347743Y345707D02*
X350893D01*
X347743Y352006D02*
X350893D01*
X347743Y345707D02*
Y352006D01*
X350893Y345707D02*
Y352006D01*
X347616Y355770D02*
X350766D01*
X347616Y362069D02*
X350766D01*
X347616Y355770D02*
Y362069D01*
X350766Y355770D02*
Y362069D01*
X347616Y365870D02*
X350766D01*
X347616Y372169D02*
X350766D01*
X347616Y365870D02*
Y372169D01*
X350766Y365870D02*
Y372169D01*
X549162Y283788D02*
Y286937D01*
X555462Y283788D02*
Y286937D01*
X549162Y283788D02*
X555462D01*
X549162Y286937D02*
X555462D01*
X555299Y289506D02*
Y292655D01*
X548999Y289506D02*
Y292655D01*
X555299D01*
X548999Y289506D02*
X555299D01*
X634906Y251017D02*
Y254167D01*
X641205Y251017D02*
Y254167D01*
X634906Y251017D02*
X641205D01*
X634906Y254167D02*
X641205D01*
X647434Y251017D02*
Y254167D01*
X653733Y251017D02*
Y254167D01*
X647434Y251017D02*
X653733D01*
X647434Y254167D02*
X653733D01*
X761317Y317977D02*
Y321126D01*
X755018Y317977D02*
Y321126D01*
Y317977D02*
X761317D01*
X755018Y321126D02*
X761317D01*
X724260Y273775D02*
X749653D01*
X724260Y286570D02*
X749653D01*
Y273775D02*
Y286570D01*
X724260Y273775D02*
Y286570D01*
X761407Y311629D02*
Y314778D01*
X755108Y311629D02*
Y314778D01*
Y311629D02*
X761407D01*
X755108Y314778D02*
X761407D01*
X761244Y324402D02*
Y327551D01*
X754945Y324402D02*
Y327551D01*
Y324402D02*
X761244D01*
X754945Y327551D02*
X761244D01*
X432414Y385233D02*
X435564D01*
X432414Y391533D02*
X435564D01*
X432414Y385233D02*
Y391533D01*
X435564Y385233D02*
Y391533D01*
X426521Y389488D02*
X429670D01*
X426521Y395787D02*
X429670D01*
X426521Y389488D02*
Y395787D01*
X429670Y389488D02*
Y395787D01*
X420218Y387509D02*
X423368D01*
X420218Y393808D02*
X423368D01*
X420218Y387509D02*
Y393808D01*
X423368Y387509D02*
Y393808D01*
X701149Y285864D02*
Y289014D01*
X694850Y285864D02*
Y289014D01*
Y285864D02*
X701149D01*
X694850Y289014D02*
X701149D01*
X761416Y330896D02*
Y334045D01*
X755117Y330896D02*
Y334045D01*
Y330896D02*
X761416D01*
X755117Y334045D02*
X761416D01*
X755360Y337799D02*
Y340948D01*
X761659Y337799D02*
Y340948D01*
X755360D02*
X761659D01*
X755360Y337799D02*
X761659D01*
X732516Y334848D02*
X735666D01*
X732516Y328549D02*
X735666D01*
Y334848D01*
X732516Y328549D02*
Y334848D01*
X844666Y343361D02*
X847815D01*
X844666Y349660D02*
X847815D01*
X844666Y343361D02*
Y349660D01*
X847815Y343361D02*
Y349660D01*
X686625Y287635D02*
X689774D01*
X686625Y281335D02*
X689774D01*
Y287635D01*
X686625Y281335D02*
Y287635D01*
X844686Y358626D02*
X847836D01*
X844686Y364925D02*
X847836D01*
X844686Y358626D02*
Y364925D01*
X847836Y358626D02*
Y364925D01*
X686653Y266927D02*
X689803D01*
X686653Y260628D02*
X689803D01*
Y266927D01*
X686653Y260628D02*
Y266927D01*
X844501Y371199D02*
X847651D01*
X844501Y377499D02*
X847651D01*
X844501Y371199D02*
Y377499D01*
X847651Y371199D02*
Y377499D01*
X710911Y323735D02*
Y326885D01*
X704612Y323735D02*
Y326885D01*
Y323735D02*
X710911D01*
X704612Y326885D02*
X710911D01*
X710503Y332695D02*
Y335844D01*
X704204Y332695D02*
Y335844D01*
Y332695D02*
X710503D01*
X704204Y335844D02*
X710503D01*
X709891Y303255D02*
Y306404D01*
X703592Y303255D02*
Y306404D01*
Y303255D02*
X709891D01*
X703592Y306404D02*
X709891D01*
X710283Y313799D02*
Y316948D01*
X703984Y313799D02*
Y316948D01*
Y313799D02*
X710283D01*
X703984Y316948D02*
X710283D01*
X838383Y460391D02*
X841533D01*
X838383Y454092D02*
X841533D01*
Y460391D01*
X838383Y454092D02*
Y460391D01*
X575835Y451787D02*
X578985D01*
X575835Y445488D02*
X578985D01*
Y451787D01*
X575835Y445488D02*
Y451787D01*
X623174Y348621D02*
Y351770D01*
X629473Y348621D02*
Y351770D01*
X623174D02*
X629473D01*
X623174Y348621D02*
X629473D01*
X641856Y381063D02*
Y384213D01*
X648155Y381063D02*
Y384213D01*
X641856D02*
X648155D01*
X641856Y381063D02*
X648155D01*
X620672Y380927D02*
Y384077D01*
X626971Y380927D02*
Y384077D01*
X620672D02*
X626971D01*
X620672Y380927D02*
X626971D01*
X645728Y390073D02*
X648877D01*
X645728Y396373D02*
X648877D01*
X645728Y390073D02*
Y396373D01*
X648877Y390073D02*
Y396373D01*
X634428Y348664D02*
Y351814D01*
X640727Y348664D02*
Y351814D01*
X634428D02*
X640727D01*
X634428Y348664D02*
X640727D01*
X619370Y335750D02*
X622519D01*
X619370Y342050D02*
X622519D01*
X619370Y335750D02*
Y342050D01*
X622519Y335750D02*
Y342050D01*
X617151Y347891D02*
Y351041D01*
X610851Y347891D02*
Y351041D01*
Y347891D02*
X617151D01*
X610851Y351041D02*
X617151D01*
X619034Y325436D02*
X622184D01*
X619034Y331735D02*
X622184D01*
X619034Y325436D02*
Y331735D01*
X622184Y325436D02*
Y331735D01*
X631545Y334955D02*
Y338104D01*
X625246Y334955D02*
Y338104D01*
Y334955D02*
X631545D01*
X625246Y338104D02*
X631545D01*
X605219Y349545D02*
X608368D01*
X605219Y355845D02*
X608368D01*
X605219Y349545D02*
Y355845D01*
X608368Y349545D02*
Y355845D01*
X808972Y362494D02*
Y387888D01*
X796177Y362494D02*
Y387888D01*
X808972D01*
X796177Y362494D02*
X808972D01*
X790137Y362377D02*
Y387770D01*
X777342Y362377D02*
Y387770D01*
X790137D01*
X777342Y362377D02*
X790137D01*
X437603Y411131D02*
X440752D01*
X437603Y404832D02*
X440752D01*
Y411131D01*
X437603Y404832D02*
Y411131D01*
X431910Y398842D02*
X435060D01*
X431910Y405141D02*
X435060D01*
X431910Y398842D02*
Y405141D01*
X435060Y398842D02*
Y405141D01*
X526523Y449702D02*
Y452852D01*
X532822Y449702D02*
Y452852D01*
X526523D02*
X532822D01*
X526523Y449702D02*
X532822D01*
X806263Y453579D02*
Y456728D01*
X812562Y453579D02*
Y456728D01*
X806263D02*
X812562D01*
X806263Y453579D02*
X812562D01*
X754385Y406471D02*
X757534D01*
X754385Y412770D02*
X757534D01*
Y406471D02*
Y412770D01*
X754385Y406471D02*
Y412770D01*
X754385Y424335D02*
X757534D01*
X754385Y418036D02*
X757534D01*
X754385D02*
Y424335D01*
X757534Y418036D02*
Y424335D01*
X315031Y471719D02*
X342590D01*
Y424475D02*
Y471719D01*
X315031Y424475D02*
X342590D01*
X315031D02*
Y471719D01*
X389474Y374260D02*
X392623D01*
X389474Y380559D02*
X392623D01*
X389474Y374260D02*
Y380559D01*
X392623Y374260D02*
Y380559D01*
X394438Y374225D02*
X397588D01*
X394438Y380524D02*
X397588D01*
X394438Y374225D02*
Y380524D01*
X397588Y374225D02*
Y380524D01*
X376207Y390235D02*
Y393385D01*
X382506Y390235D02*
Y393385D01*
X376207D02*
X382506D01*
X376207Y390235D02*
X382506D01*
X402607Y414154D02*
Y417304D01*
X408907Y414154D02*
Y417304D01*
X402607D02*
X408907D01*
X402607Y414154D02*
X408907D01*
X384199Y416889D02*
X387349D01*
X384199Y410590D02*
X387349D01*
Y416889D01*
X384199Y410590D02*
Y416889D01*
X376207Y396693D02*
Y399842D01*
X382506Y396693D02*
Y399842D01*
X376207D02*
X382506D01*
X376207Y396693D02*
X382506D01*
X427597Y399167D02*
Y402317D01*
X421298Y399167D02*
Y402317D01*
Y399167D02*
X427597D01*
X421298Y402317D02*
X427597D01*
X384363Y374225D02*
X387512D01*
X384363Y380524D02*
X387512D01*
X384363Y374225D02*
Y380524D01*
X387512Y374225D02*
Y380524D01*
X431830Y477187D02*
X434979D01*
X431830Y470888D02*
X434979D01*
Y477187D01*
X431830Y470888D02*
Y477187D01*
X413888Y377408D02*
Y380557D01*
X407589Y377408D02*
Y380557D01*
Y377408D02*
X413888D01*
X407589Y380557D02*
X413888D01*
X402533Y477187D02*
X405683D01*
X402533Y470888D02*
X405683D01*
Y477187D01*
X402533Y470888D02*
Y477187D01*
X511300Y465638D02*
Y468788D01*
X505001Y465638D02*
Y468788D01*
Y465638D02*
X511300D01*
X505001Y468788D02*
X511300D01*
Y460842D02*
Y463992D01*
X505001Y460842D02*
Y463992D01*
Y460842D02*
X511300D01*
X505001Y463992D02*
X511300D01*
X504770Y393562D02*
X507919D01*
X504770Y387263D02*
X507919D01*
X504770D02*
Y393562D01*
X507919Y387263D02*
Y393562D01*
X397058Y439894D02*
X400207D01*
X397058Y446194D02*
X400207D01*
X397058Y439894D02*
Y446194D01*
X400207Y439894D02*
Y446194D01*
X392138Y439946D02*
X395288D01*
X392138Y446245D02*
X395288D01*
X392138Y439946D02*
Y446245D01*
X395288Y439946D02*
Y446245D01*
X462160Y438806D02*
X464387Y436579D01*
X457706Y434352D02*
X459933Y432125D01*
X457706Y434352D02*
X462160Y438806D01*
X459933Y432125D02*
X464387Y436579D01*
X455357Y445609D02*
X457584Y443382D01*
X450903Y441155D02*
X453130Y438928D01*
X450903Y441155D02*
X455357Y445609D01*
X453130Y438928D02*
X457584Y443382D01*
X458759Y442208D02*
X460986Y439981D01*
X454305Y437754D02*
X456532Y435527D01*
X454305Y437754D02*
X458759Y442208D01*
X456532Y435527D02*
X460986Y439981D01*
X682862Y522914D02*
X686012D01*
X682862Y516614D02*
X686012D01*
Y522914D01*
X682862Y516614D02*
Y522914D01*
X658238Y498347D02*
Y501496D01*
X664537Y498347D02*
Y501496D01*
X658238D02*
X664537D01*
X658238Y498347D02*
X664537D01*
X382970Y439528D02*
X386119D01*
X382970Y445828D02*
X386119D01*
X382970Y439528D02*
Y445828D01*
X386119Y439528D02*
Y445828D01*
X350442Y449417D02*
Y452567D01*
X356741Y449417D02*
Y452567D01*
X350442D02*
X356741D01*
X350442Y449417D02*
X356741D01*
X415171Y316158D02*
Y319308D01*
X421470Y316158D02*
Y319308D01*
X415171D02*
X421470D01*
X415171Y316158D02*
X421470D01*
X473273Y309981D02*
X476423D01*
X473273Y316280D02*
X476423D01*
X473273Y309981D02*
Y316280D01*
X476423Y309981D02*
Y316280D01*
X455142Y341259D02*
X458291D01*
X455142Y334959D02*
X458291D01*
Y341259D01*
X455142Y334959D02*
Y341259D01*
X448793Y341250D02*
X451943D01*
X448793Y334951D02*
X451943D01*
Y341250D01*
X448793Y334951D02*
Y341250D01*
X347612Y334256D02*
X350761D01*
X347612Y340555D02*
X350761D01*
X347612Y334256D02*
Y340555D01*
X350761Y334256D02*
Y340555D01*
X357660Y363233D02*
Y366383D01*
X363959Y363233D02*
Y366383D01*
X357660D02*
X363959D01*
X357660Y363233D02*
X363959D01*
X364077Y369138D02*
Y372287D01*
X357778Y369138D02*
Y372287D01*
Y369138D02*
X364077D01*
X357778Y372287D02*
X364077D01*
X753815Y302023D02*
X756964D01*
X753815Y308322D02*
X756964D01*
X753815Y302023D02*
Y308322D01*
X756964Y302023D02*
Y308322D01*
X759082Y308249D02*
X762231D01*
X759082Y301950D02*
X762231D01*
Y308249D01*
X759082Y301950D02*
Y308249D01*
X747888Y337776D02*
Y340926D01*
X741589Y337776D02*
Y340926D01*
Y337776D02*
X747888D01*
X741589Y340926D02*
X747888D01*
X575723Y432903D02*
X578872D01*
X575723Y439202D02*
X578872D01*
X575723Y432903D02*
Y439202D01*
X578872Y432903D02*
Y439202D01*
X638033Y380999D02*
Y384149D01*
X631734Y380999D02*
Y384149D01*
Y380999D02*
X638033D01*
X631734Y384149D02*
X638033D01*
X658802Y352792D02*
Y355942D01*
X652502Y352792D02*
Y355942D01*
Y352792D02*
X658802D01*
X652502Y355942D02*
X658802D01*
Y347924D02*
Y351073D01*
X652502Y347924D02*
Y351073D01*
Y347924D02*
X658802D01*
X652502Y351073D02*
X658802D01*
X652502Y357573D02*
Y360723D01*
X658802Y357573D02*
Y360723D01*
X652502D02*
X658802D01*
X652502Y357573D02*
X658802D01*
X618991Y313207D02*
X622140D01*
X618991Y319507D02*
X622140D01*
X618991Y313207D02*
Y319507D01*
X622140Y313207D02*
Y319507D01*
D21*
X578807Y317696D02*
X593807D01*
X578807Y299896D02*
X593807D01*
X562837Y269122D02*
X587285D01*
X562837Y297158D02*
X587285D01*
D25*
X356355Y348555D02*
X359687Y351887D01*
Y348555D02*
X356355Y351887D01*
X358021Y348555D02*
Y351887D01*
X359687Y350221D02*
X356355D01*
X727589Y319803D02*
X730921Y316471D01*
X727589D02*
X730921Y319803D01*
X727589Y318137D02*
X730921D01*
X729255Y316471D02*
Y319803D01*
X641777Y356973D02*
X638445Y360305D01*
X641777D02*
X638445Y356973D01*
X641777Y358639D02*
X638445D01*
X640111Y360305D02*
Y356973D01*
X762490Y379603D02*
X759158Y376271D01*
Y379603D02*
X762490Y376271D01*
X760824Y379603D02*
Y376271D01*
X759158Y377937D02*
X762490D01*
X508005Y476551D02*
X504672Y479883D01*
X508005D02*
X504672Y476551D01*
X508005Y478217D02*
X504672D01*
X506339Y479883D02*
Y476551D01*
X373807Y365195D02*
X377139Y368527D01*
Y365195D02*
X373807Y368527D01*
X375473Y365195D02*
Y368527D01*
X377139Y366861D02*
X373807D01*
D192*
X528791Y402519D02*
X527942Y402167D01*
X527591Y401319D01*
X527942Y400470D01*
X528791Y400119D01*
X355661Y351155D02*
X356509Y351507D01*
X356861Y352355D01*
X356509Y353204D01*
X355661Y353555D01*
X635527Y355838D02*
X635175Y356687D01*
X634327Y357038D01*
X633478Y356687D01*
X633127Y355838D01*
X763624Y374953D02*
X762776Y374602D01*
X762425Y373753D01*
X762776Y372905D01*
X763624Y372553D01*
X590889Y420574D02*
X590289D01*
X590889D01*
X711865Y292395D02*
X717465D01*
Y294896D01*
X711865Y292395D02*
Y294896D01*
Y288996D02*
X717465D01*
X711865Y286495D02*
Y288996D01*
X717465Y286495D02*
Y288996D01*
X711865D02*
Y292395D01*
Y286495D02*
X717465D01*
Y288996D02*
Y292395D01*
X711865Y294896D02*
X717465D01*
X681262Y324170D02*
X686862D01*
X681262Y321670D02*
Y324170D01*
X686862Y321670D02*
Y324170D01*
X681262Y327570D02*
X686862D01*
Y330070D01*
X681262Y327570D02*
Y330070D01*
X686862Y324170D02*
Y327570D01*
X681262Y330070D02*
X686862D01*
X681262Y324170D02*
Y327570D01*
Y321670D02*
X686862D01*
X692263Y324357D02*
X697863D01*
X692263Y321857D02*
Y324357D01*
X697863Y321857D02*
Y324357D01*
X692263Y327757D02*
X697863D01*
Y330257D01*
X692263Y327757D02*
Y330257D01*
X697863Y324357D02*
Y327757D01*
X692263Y330257D02*
X697863D01*
X692263Y324357D02*
Y327757D01*
Y321857D02*
X697863D01*
X655951Y327011D02*
Y332611D01*
X653451Y327011D02*
X655951D01*
X653451Y332611D02*
X655951D01*
X659351Y327011D02*
Y332611D01*
X661851D01*
X659351Y327011D02*
X661851D01*
X655951Y332611D02*
X659351D01*
X661851Y327011D02*
Y332611D01*
X655951Y327011D02*
X659351D01*
X653451D02*
Y332611D01*
X655951Y302348D02*
Y307948D01*
X653451Y302348D02*
X655951D01*
X653451Y307948D02*
X655951D01*
X659351Y302348D02*
Y307948D01*
X661851D01*
X659351Y302348D02*
X661851D01*
X655951Y307948D02*
X659351D01*
X661851Y302348D02*
Y307948D01*
X655951Y302348D02*
X659351D01*
X653451D02*
Y307948D01*
X655951Y310569D02*
Y316169D01*
X653451Y310569D02*
X655951D01*
X653451Y316169D02*
X655951D01*
X659351Y310569D02*
Y316169D01*
X661851D01*
X659351Y310569D02*
X661851D01*
X655951Y316169D02*
X659351D01*
X661851Y310569D02*
Y316169D01*
X655951Y310569D02*
X659351D01*
X653451D02*
Y316169D01*
X655951Y318790D02*
Y324390D01*
X653451Y318790D02*
X655951D01*
X653451Y324390D02*
X655951D01*
X659351Y318790D02*
Y324390D01*
X661851D01*
X659351Y318790D02*
X661851D01*
X655951Y324390D02*
X659351D01*
X661851Y318790D02*
Y324390D01*
X655951Y318790D02*
X659351D01*
X653451D02*
Y324390D01*
X655951Y335232D02*
Y340832D01*
X653451Y335232D02*
X655951D01*
X653451Y340832D02*
X655951D01*
X659351Y335232D02*
Y340832D01*
X661851D01*
X659351Y335232D02*
X661851D01*
X655951Y340832D02*
X659351D01*
X661851Y335232D02*
Y340832D01*
X655951Y335232D02*
X659351D01*
X653451D02*
Y340832D01*
X680910Y310744D02*
X686510D01*
Y313244D01*
X680910Y310744D02*
Y313244D01*
Y307344D02*
X686510D01*
X680910Y304844D02*
Y307344D01*
X686510Y304844D02*
Y307344D01*
X680910D02*
Y310744D01*
Y304844D02*
X686510D01*
Y307344D02*
Y310744D01*
X680910Y313244D02*
X686510D01*
X692139Y310744D02*
X697740D01*
Y313244D01*
X692139Y310744D02*
Y313244D01*
Y307344D02*
X697740D01*
X692139Y304844D02*
Y307344D01*
X697740Y304844D02*
Y307344D01*
X692139D02*
Y310744D01*
Y304844D02*
X697740D01*
Y307344D02*
Y310744D01*
X692139Y313244D02*
X697740D01*
X631189Y445684D02*
X636789D01*
Y448184D01*
X631189Y445684D02*
Y448184D01*
Y442284D02*
X636789D01*
X631189Y439784D02*
Y442284D01*
X636789Y439784D02*
Y442284D01*
X631189D02*
Y445684D01*
Y439784D02*
X636789D01*
Y442284D02*
Y445684D01*
X631189Y448184D02*
X636789D01*
X621160Y395006D02*
X626760D01*
Y397506D01*
X621160Y395006D02*
Y397506D01*
Y391606D02*
X626760D01*
X621160Y389106D02*
Y391606D01*
X626760Y389106D02*
Y391606D01*
X621160D02*
Y395006D01*
Y389106D02*
X626760D01*
Y391606D02*
Y395006D01*
X621160Y397506D02*
X626760D01*
X637301Y395006D02*
X642901D01*
Y397506D01*
X637301Y395006D02*
Y397506D01*
Y391606D02*
X642901D01*
X637301Y389106D02*
Y391606D01*
X642901Y389106D02*
Y391606D01*
X637301D02*
Y395006D01*
Y389106D02*
X642901D01*
Y391606D02*
Y395006D01*
X637301Y397506D02*
X642901D01*
X629106Y395006D02*
X634706D01*
Y397506D01*
X629106Y395006D02*
Y397506D01*
Y391606D02*
X634706D01*
X629106Y389106D02*
Y391606D01*
X634706Y389106D02*
Y391606D01*
X629106D02*
Y395006D01*
Y389106D02*
X634706D01*
Y391606D02*
Y395006D01*
X629106Y397506D02*
X634706D01*
X631905Y305774D02*
Y311374D01*
X629405D02*
X631905D01*
X629405Y305774D02*
X631905D01*
X635305D02*
Y311374D01*
Y305774D02*
X637805D01*
X635305Y311374D02*
X637805D01*
X631905Y305774D02*
X635305D01*
X637805D02*
Y311374D01*
X631905D02*
X635305D01*
X629405Y305774D02*
Y311374D01*
X631981Y321765D02*
Y327365D01*
X629481D02*
X631981D01*
X629481Y321765D02*
X631981D01*
X635381D02*
Y327365D01*
Y321765D02*
X637881D01*
X635381Y327365D02*
X637881D01*
X631981Y321765D02*
X635381D01*
X637881D02*
Y327365D01*
X631981D02*
X635381D01*
X629481Y321765D02*
Y327365D01*
X631981Y313984D02*
Y319584D01*
X629481D02*
X631981D01*
X629481Y313984D02*
X631981D01*
X635381D02*
Y319584D01*
Y313984D02*
X637881D01*
X635381Y319584D02*
X637881D01*
X631981Y313984D02*
X635381D01*
X637881D02*
Y319584D01*
X631981D02*
X635381D01*
X629481Y313984D02*
Y319584D01*
X589481Y356527D02*
X595082D01*
Y359027D01*
X589481Y356527D02*
Y359027D01*
Y353127D02*
X595082D01*
X589481Y350627D02*
Y353127D01*
X595082Y350627D02*
Y353127D01*
X589481D02*
Y356527D01*
Y350627D02*
X595082D01*
Y353127D02*
Y356527D01*
X589481Y359027D02*
X595082D01*
X577172Y356527D02*
X582772D01*
Y359027D01*
X577172Y356527D02*
Y359027D01*
Y353127D02*
X582772D01*
X577172Y350627D02*
Y353127D01*
X582772Y350627D02*
Y353127D01*
X577172D02*
Y356527D01*
Y350627D02*
X582772D01*
Y353127D02*
Y356527D01*
X577172Y359027D02*
X582772D01*
X564862Y356527D02*
X570462D01*
Y359027D01*
X564862Y356527D02*
Y359027D01*
Y353127D02*
X570462D01*
X564862Y350627D02*
Y353127D01*
X570462Y350627D02*
Y353127D01*
X564862D02*
Y356527D01*
Y350627D02*
X570462D01*
Y353127D02*
Y356527D01*
X564862Y359027D02*
X570462D01*
D196*
X581573Y293736D02*
X619604D01*
X581573Y251688D02*
X619604D01*
D199*
X357021Y355905D02*
Y358655D01*
X359021D01*
Y355905D02*
Y358655D01*
X357021Y355905D02*
X359021D01*
X364501D02*
Y358655D01*
X366501D01*
Y355905D02*
Y358655D01*
X364501Y355905D02*
X366501D01*
Y346055D02*
Y348805D01*
X364501Y346055D02*
X366501D01*
X364501D02*
Y348805D01*
X366501D01*
X362761Y346055D02*
Y348805D01*
X360761Y346055D02*
X362761D01*
X360761D02*
Y348805D01*
X362761D01*
X359021Y346055D02*
Y348805D01*
X357021Y346055D02*
X359021D01*
X357021D02*
Y348805D01*
X359021D01*
X355661D02*
X367861D01*
X355661D02*
Y355905D01*
X367861D01*
Y348805D02*
Y355905D01*
X726870Y302193D02*
Y322272D01*
X743012D01*
Y302193D02*
Y322272D01*
X726870Y302193D02*
X743012D01*
Y316563D02*
Y317744D01*
Y316563D02*
Y317744D01*
Y314594D02*
Y315775D01*
Y314594D02*
Y315775D01*
Y312626D02*
Y313807D01*
Y312626D02*
Y313807D01*
Y310657D02*
Y311839D01*
Y310657D02*
Y311839D01*
Y308689D02*
Y309870D01*
Y308689D02*
Y309870D01*
Y306720D02*
Y307902D01*
Y306720D02*
Y307902D01*
X737303Y302193D02*
X738484D01*
X737303D02*
X738484D01*
X735335D02*
X736516D01*
X735335D02*
X736516D01*
X733366D02*
X734547D01*
X733366D02*
X734547D01*
X731398D02*
X732579D01*
X731398D02*
X732579D01*
X726870Y306720D02*
Y307902D01*
Y306720D02*
Y307902D01*
Y308689D02*
Y309870D01*
Y308689D02*
Y309870D01*
Y310657D02*
Y311839D01*
Y310657D02*
Y311839D01*
Y312626D02*
Y313807D01*
Y312626D02*
Y313807D01*
Y314594D02*
Y315775D01*
Y314594D02*
Y315775D01*
Y316563D02*
Y317744D01*
Y316563D02*
Y317744D01*
X731398Y322272D02*
X732579D01*
X731398D02*
X732579D01*
X733366D02*
X734547D01*
X733366D02*
X734547D01*
X735335D02*
X736516D01*
X735335D02*
X736516D01*
X737303D02*
X738484D01*
X737303D02*
X738484D01*
X726870Y317272D02*
X731870Y322272D01*
X642027Y357839D02*
Y359539D01*
Y357839D02*
X646127D01*
Y359539D01*
X642027D02*
X646127D01*
X642027Y362839D02*
Y364539D01*
Y362839D02*
X646127D01*
Y364539D01*
X642027D02*
X646127D01*
X642027Y367839D02*
Y369538D01*
Y367839D02*
X646127D01*
Y369538D01*
X642027D02*
X646127D01*
X642027Y372838D02*
Y374538D01*
Y372838D02*
X646127D01*
Y374538D01*
X642027D02*
X646127D01*
X626627Y372838D02*
Y374538D01*
X622527D02*
X626627D01*
X622527Y372838D02*
Y374538D01*
Y372838D02*
X626627D01*
Y367839D02*
Y369538D01*
X622527D02*
X626627D01*
X622527Y367839D02*
Y369538D01*
Y367839D02*
X626627D01*
Y362839D02*
Y364539D01*
X622527D02*
X626627D01*
X622527Y362839D02*
Y364539D01*
Y362839D02*
X626627D01*
Y357839D02*
Y359539D01*
X622527D02*
X626627D01*
X622527Y357839D02*
Y359539D01*
Y357839D02*
X626627D01*
Y376538D02*
X642027D01*
X626627Y355838D02*
Y376538D01*
Y355838D02*
X642027D01*
Y376538D01*
X760915Y379853D02*
X762014D01*
Y383703D01*
X760915D02*
X762014D01*
X760915Y379853D02*
Y383703D01*
X758945Y379853D02*
X760044D01*
Y383703D01*
X758945D02*
X760044D01*
X758945Y379853D02*
Y383703D01*
X756975Y379853D02*
X758075D01*
Y383703D01*
X756975D02*
X758075D01*
X756975Y379853D02*
Y383703D01*
X755005Y379853D02*
X756105D01*
Y383703D01*
X755005D02*
X756105D01*
X755005Y379853D02*
Y383703D01*
X753034Y379853D02*
X754135D01*
Y383703D01*
X753034D02*
X754135D01*
X753034Y379853D02*
Y383703D01*
Y367653D02*
X754135D01*
X753034Y363803D02*
Y367653D01*
Y363803D02*
X754135D01*
Y367653D01*
X755005D02*
X756105D01*
X755005Y363803D02*
Y367653D01*
Y363803D02*
X756105D01*
Y367653D01*
X756975D02*
X758075D01*
X756975Y363803D02*
Y367653D01*
Y363803D02*
X758075D01*
Y367653D01*
X758945D02*
X760044D01*
X758945Y363803D02*
Y367653D01*
Y363803D02*
X760044D01*
Y367653D01*
X760915D02*
X762014D01*
X760915Y363803D02*
Y367653D01*
Y363803D02*
X762014D01*
Y367653D01*
X751425D02*
Y379853D01*
Y367653D02*
X763624D01*
Y379853D01*
X751425D02*
X763624D01*
X565189Y369074D02*
Y422574D01*
Y369074D02*
X615989D01*
Y422574D01*
X565189D02*
X615989D01*
X461162Y543568D02*
X484962D01*
Y513868D02*
Y543568D01*
X461162Y513868D02*
X484962D01*
X461162D02*
Y543568D01*
X497677Y429048D02*
X538977D01*
X497677D02*
Y452648D01*
X538977D01*
Y429048D02*
Y452648D01*
X507755Y476735D02*
Y483235D01*
X502855Y476735D02*
X507755D01*
X502855D02*
Y483235D01*
X507755D01*
X502055Y477516D02*
X502855D01*
X502055D02*
Y478516D01*
X502855D01*
Y477516D02*
Y478516D01*
X502055Y481453D02*
X502855D01*
X502055D02*
Y482453D01*
X502855D01*
Y481453D02*
Y482453D01*
X507755D02*
X508555D01*
Y481453D02*
Y482453D01*
X507755Y481453D02*
X508555D01*
X507755D02*
Y482453D01*
Y480485D02*
X508555D01*
Y479485D02*
Y480485D01*
X507755Y479485D02*
X508555D01*
X507755D02*
Y480485D01*
Y478516D02*
X508555D01*
Y477516D02*
Y478516D01*
X507755Y477516D02*
X508555D01*
X507755D02*
Y478516D01*
X537025Y366448D02*
X548521D01*
X537025D02*
Y388456D01*
X548521D01*
Y366448D02*
Y388456D01*
X540273Y378948D02*
X545273D01*
X542773Y375948D02*
X543273Y378948D01*
X542773Y375948D02*
X543773Y378948D01*
X542773Y375948D02*
X544273Y378948D01*
X542773Y375948D02*
X544773Y378948D01*
X542773Y375948D02*
X545273Y378948D01*
X542273D02*
X542773Y375948D01*
X541773Y378948D02*
X542773Y375948D01*
X541273Y378948D02*
X542773Y375948D01*
X540773Y378948D02*
X542773Y375948D01*
X540273Y378948D02*
X542773Y375948D01*
X540273D02*
X545273D01*
X542773Y374948D02*
Y379948D01*
X374172Y365445D02*
X376772D01*
X374172D02*
Y368745D01*
X376772D01*
Y365445D02*
Y368745D01*
X376122Y365445D02*
X376772Y366095D01*
X374172D02*
X374822Y365445D01*
X374972Y368745D02*
Y369145D01*
X375972D01*
Y368745D02*
Y369145D01*
X374972Y368745D02*
X375972D01*
Y365045D02*
Y365445D01*
X374972Y365045D02*
X375972D01*
X374972D02*
Y365445D01*
X375972D01*
X734570Y402067D02*
X746066D01*
Y424075D01*
X734570D02*
X746066D01*
X734570Y402067D02*
Y424075D01*
X737818Y414567D02*
X742818D01*
X739818D02*
X740318Y411567D01*
X739318Y414567D02*
X740318Y411567D01*
X738818Y414567D02*
X740318Y411567D01*
X738318Y414567D02*
X740318Y411567D01*
X737818Y414567D02*
X740318Y411567D01*
X740818Y414567D01*
X740318Y411567D02*
X741318Y414567D01*
X740318Y411567D02*
X741818Y414567D01*
X740318Y411567D02*
X742318Y414567D01*
X740318Y411567D02*
X742818Y414567D01*
X737818Y411567D02*
X742818D01*
X740318Y410567D02*
Y415567D01*
M02*
