G04*
G04 #@! TF.GenerationSoftware,Altium Limited,Altium Designer,21.7.2 (23)*
G04*
G04 Layer_Color=16711935*
%FSLAX25Y25*%
%MOIN*%
G70*
G04*
G04 #@! TF.SameCoordinates,A0010EF7-2AB2-453B-8453-4F0255DAD4E6*
G04*
G04*
G04 #@! TF.FilePolarity,Positive*
G04*
G01*
G75*
G36*
X369761Y361155D02*
Y343555D01*
X353761D01*
Y361155D01*
X369761D01*
D02*
G37*
G36*
X377522Y370695D02*
Y363495D01*
X373422D01*
Y370695D01*
X377522D01*
D02*
G37*
G36*
X347485Y423724D02*
X461658D01*
Y509354D01*
X347485D01*
Y423724D01*
D02*
G37*
G36*
X486462Y545068D02*
Y512367D01*
X459662D01*
Y545068D01*
X486462D01*
D02*
G37*
G36*
X500805Y484485D02*
Y475485D01*
X509805D01*
Y484485D01*
X500805D01*
D02*
G37*
G36*
X550021Y390656D02*
Y364248D01*
X535525D01*
Y390656D01*
X550021D01*
D02*
G37*
G36*
X563689Y365974D02*
Y425674D01*
X617489D01*
Y365974D01*
X563689D01*
D02*
G37*
G36*
X618627Y379039D02*
X650027D01*
Y353339D01*
X618627D01*
Y379039D01*
D02*
G37*
G36*
X748112Y297093D02*
X721770D01*
Y327372D01*
X748112D01*
Y297093D01*
D02*
G37*
G36*
X748924Y359903D02*
Y387603D01*
X766124D01*
Y359903D01*
X748924D01*
D02*
G37*
G36*
X733070Y426275D02*
Y399867D01*
X747566D01*
Y426275D01*
X733070D01*
D02*
G37*
M02*
