G04*
G04 #@! TF.GenerationSoftware,Altium Limited,Altium Designer,21.7.2 (23)*
G04*
G04 Layer_Color=0*
%FSLAX25Y25*%
%MOIN*%
G70*
G04*
G04 #@! TF.SameCoordinates,A0010EF7-2AB2-453B-8453-4F0255DAD4E6*
G04*
G04*
G04 #@! TF.FilePolarity,Positive*
G04*
G01*
G75*
%ADD15C,0.00600*%
%ADD18C,0.01000*%
D15*
X178015Y346855D02*
Y342857D01*
X181014D01*
X180015Y344856D01*
Y345856D01*
X181014Y346855D01*
X183014D01*
X184013Y345856D01*
Y343856D01*
X183014Y342857D01*
X179015Y348855D02*
X178015Y349854D01*
Y351854D01*
X179015Y352853D01*
X180015D01*
X181014Y351854D01*
X182014Y352853D01*
X183014D01*
X184013Y351854D01*
Y349854D01*
X183014Y348855D01*
X182014D01*
X181014Y349854D01*
X180015Y348855D01*
X179015D01*
X181014Y349854D02*
Y351854D01*
X184013Y354853D02*
X183014D01*
Y355852D01*
X184013D01*
Y354853D01*
X179015Y359851D02*
X178015Y360851D01*
Y362850D01*
X179015Y363850D01*
X183014D01*
X184013Y362850D01*
Y360851D01*
X183014Y359851D01*
X179015D01*
Y365849D02*
X178015Y366849D01*
Y368848D01*
X179015Y369848D01*
X183014D01*
X184013Y368848D01*
Y366849D01*
X183014Y365849D01*
X179015D01*
X632525Y142295D02*
X633524Y143295D01*
X635524D01*
X636523Y142295D01*
Y141296D01*
X635524Y140296D01*
X636523Y139296D01*
Y138296D01*
X635524Y137297D01*
X633524D01*
X632525Y138296D01*
Y139296D01*
X633524Y140296D01*
X632525Y141296D01*
Y142295D01*
X633524Y140296D02*
X635524D01*
X642521Y143295D02*
X640522Y142295D01*
X638523Y140296D01*
Y138296D01*
X639522Y137297D01*
X641522D01*
X642521Y138296D01*
Y139296D01*
X641522Y140296D01*
X638523D01*
X644521Y137297D02*
Y138296D01*
X645520D01*
Y137297D01*
X644521D01*
X649519Y142295D02*
X650519Y143295D01*
X652518D01*
X653518Y142295D01*
Y138296D01*
X652518Y137297D01*
X650519D01*
X649519Y138296D01*
Y142295D01*
X655517D02*
X656517Y143295D01*
X658516D01*
X659516Y142295D01*
Y138296D01*
X658516Y137297D01*
X656517D01*
X655517Y138296D01*
Y142295D01*
X1007067Y346855D02*
Y342857D01*
X1010066D01*
X1009067Y344856D01*
Y345856D01*
X1010066Y346855D01*
X1012066D01*
X1013065Y345856D01*
Y343856D01*
X1012066Y342857D01*
X1008067Y348855D02*
X1007067Y349854D01*
Y351854D01*
X1008067Y352853D01*
X1009067D01*
X1010066Y351854D01*
X1011066Y352853D01*
X1012066D01*
X1013065Y351854D01*
Y349854D01*
X1012066Y348855D01*
X1011066D01*
X1010066Y349854D01*
X1009067Y348855D01*
X1008067D01*
X1010066Y349854D02*
Y351854D01*
X1013065Y354853D02*
X1012066D01*
Y355852D01*
X1013065D01*
Y354853D01*
X1008067Y359851D02*
X1007067Y360851D01*
Y362850D01*
X1008067Y363850D01*
X1012066D01*
X1013065Y362850D01*
Y360851D01*
X1012066Y359851D01*
X1008067D01*
Y365849D02*
X1007067Y366849D01*
Y368848D01*
X1008067Y369848D01*
X1012066D01*
X1013065Y368848D01*
Y366849D01*
X1012066Y365849D01*
X1008067D01*
X632525Y568018D02*
X633524Y569017D01*
X635524D01*
X636523Y568018D01*
Y567018D01*
X635524Y566018D01*
X636523Y565019D01*
Y564019D01*
X635524Y563019D01*
X633524D01*
X632525Y564019D01*
Y565019D01*
X633524Y566018D01*
X632525Y567018D01*
Y568018D01*
X633524Y566018D02*
X635524D01*
X642521Y569017D02*
X640522Y568018D01*
X638523Y566018D01*
Y564019D01*
X639522Y563019D01*
X641522D01*
X642521Y564019D01*
Y565019D01*
X641522Y566018D01*
X638523D01*
X644521Y563019D02*
Y564019D01*
X645520D01*
Y563019D01*
X644521D01*
X649519Y568018D02*
X650519Y569017D01*
X652518D01*
X653518Y568018D01*
Y564019D01*
X652518Y563019D01*
X650519D01*
X649519Y564019D01*
Y568018D01*
X655517D02*
X656517Y569017D01*
X658516D01*
X659516Y568018D01*
Y564019D01*
X658516Y563019D01*
X656517D01*
X655517Y564019D01*
Y568018D01*
X950284Y424144D02*
Y426143D01*
Y425144D01*
X944286D01*
X945286Y424144D01*
X944286Y433141D02*
X945286Y431142D01*
X947285Y429142D01*
X949285D01*
X950284Y430142D01*
Y432141D01*
X949285Y433141D01*
X948285D01*
X947285Y432141D01*
Y429142D01*
X950284Y435140D02*
X949285D01*
Y436140D01*
X950284D01*
Y435140D01*
X949285Y440139D02*
X950284Y441138D01*
Y443138D01*
X949285Y444137D01*
X945286D01*
X944286Y443138D01*
Y441138D01*
X945286Y440139D01*
X946286D01*
X947285Y441138D01*
Y444137D01*
X944286Y450136D02*
X945286Y448136D01*
X947285Y446137D01*
X949285D01*
X950284Y447136D01*
Y449136D01*
X949285Y450136D01*
X948285D01*
X947285Y449136D01*
Y446137D01*
X826400Y514649D02*
X828399D01*
X827399D01*
Y520647D01*
X826400Y519648D01*
X835397Y514649D02*
X831398D01*
X835397Y518648D01*
Y519648D01*
X834397Y520647D01*
X832397D01*
X831398Y519648D01*
X837396Y514649D02*
Y515649D01*
X838396D01*
Y514649D01*
X837396D01*
X846393D02*
X842394D01*
X846393Y518648D01*
Y519648D01*
X845393Y520647D01*
X843394D01*
X842394Y519648D01*
X851391Y514649D02*
Y520647D01*
X848392Y517648D01*
X852391D01*
X237195Y424144D02*
Y426143D01*
Y425144D01*
X231197D01*
X232197Y424144D01*
X231197Y433141D02*
X232197Y431142D01*
X234196Y429142D01*
X236196D01*
X237195Y430142D01*
Y432141D01*
X236196Y433141D01*
X235196D01*
X234196Y432141D01*
Y429142D01*
X237195Y435140D02*
X236196D01*
Y436140D01*
X237195D01*
Y435140D01*
X236196Y440139D02*
X237195Y441138D01*
Y443138D01*
X236196Y444137D01*
X232197D01*
X231197Y443138D01*
Y441138D01*
X232197Y440139D01*
X233197D01*
X234196Y441138D01*
Y444137D01*
X231197Y450136D02*
X232197Y448136D01*
X234196Y446137D01*
X236196D01*
X237195Y447136D01*
Y449136D01*
X236196Y450136D01*
X235196D01*
X234196Y449136D01*
Y446137D01*
X386714Y571399D02*
X387714Y572399D01*
X389713D01*
X390713Y571399D01*
Y570400D01*
X389713Y569400D01*
X388714D01*
X389713D01*
X390713Y568400D01*
Y567401D01*
X389713Y566401D01*
X387714D01*
X386714Y567401D01*
X392712D02*
X393712Y566401D01*
X395711D01*
X396711Y567401D01*
Y571399D01*
X395711Y572399D01*
X393712D01*
X392712Y571399D01*
Y570400D01*
X393712Y569400D01*
X396711D01*
X398710Y566401D02*
Y567401D01*
X399710D01*
Y566401D01*
X398710D01*
X403709D02*
X405708D01*
X404708D01*
Y572399D01*
X403709Y571399D01*
X408707D02*
X409707Y572399D01*
X411706D01*
X412706Y571399D01*
Y570400D01*
X411706Y569400D01*
X410706D01*
X411706D01*
X412706Y568400D01*
Y567401D01*
X411706Y566401D01*
X409707D01*
X408707Y567401D01*
D18*
X178414Y249779D02*
X180414Y243779D01*
X182414Y249779D01*
X180414Y472125D02*
X182414Y466125D01*
X178414D02*
X180414Y472125D01*
Y243779D02*
Y341257D01*
Y371448D02*
Y472125D01*
X179414Y243779D02*
X465912D01*
X179414Y472125D02*
X465912D01*
X810912Y138896D02*
X816912Y140896D01*
X810912Y142896D02*
X816912Y140896D01*
X478329D02*
X484329Y142896D01*
X478329Y140896D02*
X484329Y138896D01*
X661116Y140896D02*
X816912D01*
X478329D02*
X630925D01*
X816912Y139896D02*
Y231362D01*
X478329Y139896D02*
Y231362D01*
X1009466Y472125D02*
X1011466Y466125D01*
X1007466D02*
X1009466Y472125D01*
X1007466Y249779D02*
X1009466Y243779D01*
X1011466Y249779D01*
X1009466Y371448D02*
Y472125D01*
Y243779D02*
Y341257D01*
X829329Y472125D02*
X1010466D01*
X829329Y243779D02*
X1010466D01*
X810912Y564618D02*
X816912Y566618D01*
X810912Y568618D02*
X816912Y566618D01*
X478329D02*
X484329Y568618D01*
X478329Y566618D02*
X484329Y564618D01*
X661116Y566618D02*
X816912D01*
X478329D02*
X630925D01*
X816912Y484543D02*
Y567618D01*
X478329Y484543D02*
Y567618D01*
X946685Y472125D02*
X948685Y466125D01*
X944685D02*
X946685Y472125D01*
X944685Y411354D02*
X946685Y405354D01*
X948685Y411354D01*
X946685Y451735D02*
Y472125D01*
Y405354D02*
Y422544D01*
X829329Y472125D02*
X947685D01*
X866079Y405354D02*
X947685D01*
X816912Y518248D02*
X822912Y520248D01*
X816912Y518248D02*
X822912Y516248D01*
X859079D02*
X865079Y518248D01*
X859079Y520248D02*
X865079Y518248D01*
X816912D02*
X824800D01*
X853991D02*
X865079D01*
X816912Y484543D02*
Y519248D01*
X865079Y406354D02*
Y519248D01*
X233596Y472125D02*
X235596Y466125D01*
X231596D02*
X233596Y472125D01*
X231596Y411354D02*
X233596Y405354D01*
X235596Y411354D01*
X233596Y451735D02*
Y472125D01*
Y405354D02*
Y422544D01*
X232596Y472125D02*
X478329D01*
X232596Y405354D02*
X324291D01*
X472329Y568000D02*
X478329Y570000D01*
X472329Y572000D02*
X478329Y570000D01*
X324291D02*
X330291Y572000D01*
X324291Y570000D02*
X330291Y568000D01*
X414306Y570000D02*
X478329D01*
X324291D02*
X385114D01*
X478329Y472125D02*
Y571000D01*
X324291Y405354D02*
Y571000D01*
M02*
