G04*
G04 #@! TF.GenerationSoftware,Altium Limited,Altium Designer,21.7.2 (23)*
G04*
G04 Layer_Color=32896*
%FSLAX25Y25*%
%MOIN*%
G70*
G04*
G04 #@! TF.SameCoordinates,A0010EF7-2AB2-453B-8453-4F0255DAD4E6*
G04*
G04*
G04 #@! TF.FilePolarity,Positive*
G04*
G01*
G75*
%ADD15C,0.00600*%
%ADD19C,0.00500*%
D15*
X644122Y425750D02*
X646922D01*
X649122Y414550D02*
Y423950D01*
X644122Y414550D02*
X646922D01*
X641922Y423950D02*
Y425750D01*
Y423950D02*
X643722Y425750D01*
X647322D02*
X649122Y423950D01*
X645022Y417650D02*
X646022D01*
X645022D02*
X645522Y420650D01*
X644522Y417650D02*
X645522Y420650D01*
X644022Y417650D02*
X645522Y420650D01*
X643522Y417650D02*
X645522Y420650D01*
X643022Y417650D02*
X645522Y420650D01*
X646022Y417650D01*
X645522Y420650D02*
X646522Y417650D01*
X645522Y420650D02*
X647022Y417650D01*
X645522Y420650D02*
X647522Y417650D01*
X645522Y420650D02*
X648022Y417650D01*
X645522Y420650D02*
X648022D01*
X645522Y416650D02*
Y420650D01*
X646922Y412550D02*
Y414550D01*
X644122Y412550D02*
X646922D01*
X644122D02*
Y414550D01*
Y425750D02*
Y427750D01*
X646922D01*
Y425750D02*
Y427750D01*
X641922Y425750D02*
X643722D01*
X644122D01*
X646922D02*
X647322D01*
X649122D01*
Y423950D02*
Y425750D01*
X646922Y414550D02*
X649122D01*
X641922D02*
X644122D01*
X641922D02*
Y423950D01*
X643022Y417650D02*
X643522D01*
X644022D01*
X644522D01*
X645022D01*
X646022D02*
X646522D01*
X647022D01*
X647522D01*
X648022D01*
X643022Y420650D02*
X645522D01*
Y421650D01*
X644122Y425750D02*
X646922D01*
X649122Y414550D02*
Y423950D01*
X644122Y414550D02*
X646922D01*
X641922Y423950D02*
Y425750D01*
Y423950D02*
X643722Y425750D01*
X647322D02*
X649122Y423950D01*
X645022Y417650D02*
X646022D01*
X645022D02*
X645522Y420650D01*
X644522Y417650D02*
X645522Y420650D01*
X644022Y417650D02*
X645522Y420650D01*
X643522Y417650D02*
X645522Y420650D01*
X643022Y417650D02*
X645522Y420650D01*
X646022Y417650D01*
X645522Y420650D02*
X646522Y417650D01*
X645522Y420650D02*
X647022Y417650D01*
X645522Y420650D02*
X647522Y417650D01*
X645522Y420650D02*
X648022Y417650D01*
X645522Y420650D02*
X648022D01*
X645522Y416650D02*
Y420650D01*
X646922Y412550D02*
Y414550D01*
X644122Y412550D02*
X646922D01*
X644122D02*
Y414550D01*
Y425750D02*
Y427750D01*
X646922D01*
Y425750D02*
Y427750D01*
X641922Y425750D02*
X643722D01*
X644122D01*
X646922D02*
X647322D01*
X649122D01*
Y423950D02*
Y425750D01*
X646922Y414550D02*
X649122D01*
X641922D02*
X644122D01*
X641922D02*
Y423950D01*
X643022Y417650D02*
X643522D01*
X644022D01*
X644522D01*
X645022D01*
X646022D02*
X646522D01*
X647022D01*
X647522D01*
X648022D01*
X643022Y420650D02*
X645522D01*
Y421650D01*
X633797Y425750D02*
X636597D01*
X638797Y414550D02*
Y423950D01*
X633797Y414550D02*
X636597D01*
X631597Y423950D02*
Y425750D01*
Y423950D02*
X633397Y425750D01*
X636997D02*
X638797Y423950D01*
X634697Y417650D02*
X635697D01*
X634697D02*
X635197Y420650D01*
X634197Y417650D02*
X635197Y420650D01*
X633697Y417650D02*
X635197Y420650D01*
X633197Y417650D02*
X635197Y420650D01*
X632697Y417650D02*
X635197Y420650D01*
X635697Y417650D01*
X635197Y420650D02*
X636197Y417650D01*
X635197Y420650D02*
X636697Y417650D01*
X635197Y420650D02*
X637197Y417650D01*
X635197Y420650D02*
X637697Y417650D01*
X635197Y420650D02*
X637697D01*
X635197Y416650D02*
Y420650D01*
X636597Y412550D02*
Y414550D01*
X633797Y412550D02*
X636597D01*
X633797D02*
Y414550D01*
Y425750D02*
Y427750D01*
X636597D01*
Y425750D02*
Y427750D01*
X631597Y425750D02*
X633397D01*
X633797D01*
X636597D02*
X636997D01*
X638797D01*
Y423950D02*
Y425750D01*
X636597Y414550D02*
X638797D01*
X631597D02*
X633797D01*
X631597D02*
Y423950D01*
X632697Y417650D02*
X633197D01*
X633697D01*
X634197D01*
X634697D01*
X635697D02*
X636197D01*
X636697D01*
X637197D01*
X637697D01*
X632697Y420650D02*
X635197D01*
Y421650D01*
X633797Y425750D02*
X636597D01*
X638797Y414550D02*
Y423950D01*
X633797Y414550D02*
X636597D01*
X631597Y423950D02*
Y425750D01*
Y423950D02*
X633397Y425750D01*
X636997D02*
X638797Y423950D01*
X634697Y417650D02*
X635697D01*
X634697D02*
X635197Y420650D01*
X634197Y417650D02*
X635197Y420650D01*
X633697Y417650D02*
X635197Y420650D01*
X633197Y417650D02*
X635197Y420650D01*
X632697Y417650D02*
X635197Y420650D01*
X635697Y417650D01*
X635197Y420650D02*
X636197Y417650D01*
X635197Y420650D02*
X636697Y417650D01*
X635197Y420650D02*
X637197Y417650D01*
X635197Y420650D02*
X637697Y417650D01*
X635197Y420650D02*
X637697D01*
X635197Y416650D02*
Y420650D01*
X636597Y412550D02*
Y414550D01*
X633797Y412550D02*
X636597D01*
X633797D02*
Y414550D01*
Y425750D02*
Y427750D01*
X636597D01*
Y425750D02*
Y427750D01*
X631597Y425750D02*
X633397D01*
X633797D01*
X636597D02*
X636997D01*
X638797D01*
Y423950D02*
Y425750D01*
X636597Y414550D02*
X638797D01*
X631597D02*
X633797D01*
X631597D02*
Y423950D01*
X632697Y417650D02*
X633197D01*
X633697D01*
X634197D01*
X634697D01*
X635697D02*
X636197D01*
X636697D01*
X637197D01*
X637697D01*
X632697Y420650D02*
X635197D01*
Y421650D01*
D19*
X721024Y238643D02*
X731654D01*
X721024Y252029D02*
X731654D01*
Y238643D02*
Y252029D01*
X721024Y238643D02*
Y252029D01*
Y238643D02*
X731654D01*
X721024Y252029D02*
X731654D01*
Y238643D02*
Y252029D01*
X721024Y238643D02*
Y252029D01*
M02*
