M48
;Layer_Color=9474304
;FILE_FORMAT=2:4
INCH,TZ
;TYPE=PLATED
T1F00S00C0.0098
T2F00S00C0.0118
T3F00S00C0.0197
T4F00S00C0.0250
T5F00S00C0.0290
T6F00S00C0.0394
T8F00S00C0.0402
T9F00S00C0.0512
T10F00S00C0.0661
T11F00S00C0.0787
T12F00S00C0.0866
T13F00S00C0.1063
T14F00S00C0.1417
%
T01
X39717Y38962
Y39366
X39341
Y39875
X39717
X40252
Y39366
Y38962
X40768
Y39366
X41148
Y39875
X40768
Y40410
X41148
X40768Y40790
X40252
Y40410
X39717
X39341
X39717Y40790
T02
X78559Y25198
Y25698
Y26198
Y26698
X79059
Y26198
Y25698
Y25198
X81028Y24985
X80791Y24378
X81049Y23747
X81691Y23478
X82295Y23712
X82591Y24378
X82348Y24991
X81691Y25278
X81759Y28087
X81259
X80759
X80259
X79759
Y28587
X80259
X80759
X81259
X81759
X82259
Y28087
X82759
Y28587
X83259
Y29087
X82759
X82259
X81759
X81259
X80759
X80259
X79759
Y29587
X80259
X80759
X81259
X81759
X82259
X82759
X83259
X83759
Y29087
Y30087
X83259
X82759
X82259
X81759
X81259
X80759
X80259
X79759
Y30587
X80259
X80759
X81259
X81759
X82259
X82759
X83259
X83759
Y31087
X83259
X82759
X82259
X81759
X81259
X80759
X80259
X79759
X79167Y30973
X78667
X84654Y30720
X76469Y30838
X76482Y30548
X76066Y29974
X75550Y29983
X73759Y30782
X73219
X72120Y30959
X72328Y31181
X71795Y30764
X70591Y30097
X70184Y30094
X71956Y28914
X72448Y28906
X71956Y28414
Y27914
Y27414
X71452Y27211
X72403Y27137
X72559Y26698
X72059
Y26198
Y25698
X71559
X71613Y26077
X71059Y25698
X70559
X70059
X69559
Y25198
X70059
X70559
X71059
X71559
X72559Y25698
Y26198
X73059
Y25698
X73559
Y25198
X74059
Y25698
Y26198
X73559
Y26698
X73059
X74059
X74559
Y26198
Y25698
Y25198
X75059
Y25698
Y26198
Y26698
X75559Y25698
Y25198
X76059
Y25698
X76559
Y25198
X77059
Y25698
X77559
Y25198
X78059
Y25698
Y26198
X77559
Y26698
X78059
X70059
X69559
Y26198
X70059
X70559
X69018Y24352
X66807Y28772
Y29272
Y29772
X66307
Y29272
Y28772
X66689Y31006
X67278Y31017
X58998Y31119
X58291
X57584
X56877
X56171
X55464
X56356Y30252
X54374Y30325
X54629Y29106
X54607Y28544
X49365Y28654
X49359Y28183
Y27683
X48865Y28654
Y29154
X49365
X48277Y29356
X48276Y29786
X47776
X47777Y29356
X47277
X47276Y29786
Y30286
X47776
X48276
X48394Y30765
X47894
X48914Y30979
X49414
X48277Y28856
X47777
X47277
X47170Y24985
X46933Y24378
X47191Y23747
X47833Y23478
X48437Y23712
X48733Y24378
X48490Y24991
X47833Y25278
X46777Y28856
Y29356
X46776Y29786
Y30286
X42071Y30249
Y29749
Y29249
Y28749
X41571
Y29249
Y29749
Y30249
Y30749
X42071
Y31249
X41571
X42605Y29227
Y28727
Y28227
Y27727
X42490Y27342
X39976Y27775
X40149Y28224
X39657Y28140
X38964Y28909
X39138Y29358
X38645Y29274
X41482Y32219
X43083Y32235
X43089Y32664
X44712Y33482
X45341Y33482
X46819Y33958
Y34458
X46814Y34945
X46801Y35596
Y36267
X46788Y36878
X46767Y37496
X46750Y38118
X46742Y38725
X43737Y38522
X42492Y38793
X42468Y40296
X42152Y40416
X41098Y41579
X40023Y41465
X39579Y42119
X39149
X38681Y42152
X38709Y42706
X39149
X39579
X39583Y43207
X39149
X38709
X39632Y43718
X39686Y44952
X39399
X39125
X38852
X38588
X38289
X37983
X37694
X37688Y45250
Y45552
X37664Y45859
X38567Y45898
X38847
X38853Y45599
X38846Y45303
X38561Y45333
Y45614
X38565Y46237
X38849Y46232
X39690Y46119
X39696Y45847
X39702Y45528
X39708Y45250
X38888Y44600
X37820Y42559
X38459Y41335
X38260Y39504
X37624Y39509
X38178Y38049
X39353Y37209
X40566Y36941
X41702Y37425
Y37885
X43101Y35249
X38971Y35605
X36409Y37468
X35778Y37492
X33968Y33441
X47319Y33958
Y34458
X47314Y34945
X47814
X47819Y34458
X48319
X48314Y34945
X48814
X48819Y34458
X49319
X49314Y34945
X49814
X49819Y34458
Y33958
X49319
X48819
X48319
X47819
X47801Y35596
X48301
X48801
X49301
X49801
Y36267
X49301
X48801
X48301
X47801
X47301
X47288Y36878
X47788
X48288
X48788
X49288
X49788
X49767Y37496
X49267
X48767
X48267
X47767
X47267
X47250Y38118
X47750
X48250
X48750
X49250
X49750
X49742Y38725
X49242
X48742
X48242
X47742
X47242
X47301Y35596
X52631Y35847
X52641Y36280
X53080Y36269
X53101Y35841
X53572Y36232
X54048
X54561Y36242
X55000Y36419
X55021Y36895
X54996Y37362
X55516Y37357
X55531Y37806
X55543Y38243
X56027Y38239
X56448Y38235
X56484Y37817
X56027Y37802
Y37341
X56023Y36888
X56039Y36412
X56039Y35982
X56554Y35985
X56573Y36404
X57006Y36403
X57498Y36153
X57986Y36164
X58305Y36020
X59112Y36395
X59329Y36178
X59749Y36154
X60221Y36144
X60726Y36154
X61137Y35764
X61964Y34594
X62424Y34597
X58934Y34292
X58951Y33671
X58971Y33052
X58985Y32441
Y31771
X58278
Y32441
X58265Y33052
X58244Y33671
X58227Y34292
X57521
X57537Y33671
X57558Y33052
X57571Y32441
Y31771
X56865
Y32441
X56851Y33052
X56831Y33671
X56814Y34292
X56806Y34900
X56099
X56107Y34292
X56124Y33671
X56145Y33052
X56158Y32441
Y31771
X55451
Y32441
X55438Y33052
X55417Y33671
X55400Y34292
X55393Y34900
X55493Y35999
X55494Y36445
X55504Y36885
X56534Y36888
X56515Y37326
X56778Y39540
X57278
X57778
X58278
X58778
Y40040
X58278
Y40540
Y41040
X58778
Y40540
X59278
X59778
X60278
X60778
X61278
Y40040
Y39540
X60778
X60278
X59778
Y40040
X60278
X60778
Y41040
X61278
Y41540
Y42040
X60778
Y41540
X60278
Y41040
X59778
X59278
Y40040
Y39540
X57778Y40040
Y40540
Y41040
Y41540
Y42040
X57278
Y41540
X56778
Y41040
Y40540
X57278
Y40040
X56778
X57278Y41040
X56778Y42040
X55584Y42488
X55570Y43008
X55563Y43511
X55541Y43990
X55531Y44462
X54917
X54927Y43990
X54949Y43511
X54956Y43008
X54970Y42488
X54356
X54342Y43008
X54335Y43511
X54313Y43990
X54303Y44462
X54004Y44810
X53995Y45495
X54344Y45791
X54385Y45158
X54751Y45422
X54758Y44877
X55220Y44905
X53562Y45135
X53274Y45570
X53630Y45852
X53967Y46153
X52339Y45133
X53298Y43619
X53844Y43623
X53590Y43199
X53594Y42739
X52572Y42641
X52304Y42395
X51825Y42209
X51265Y42232
X50650Y42230
X51050Y40433
X50798Y40174
X50467Y40111
X50127Y40064
X50019Y39696
X50547Y38921
X51391Y38947
X51397Y39337
X53179Y39307
X53642Y39321
X53679Y38807
X53179
X53080Y37312
X53091Y36831
X53567Y36804
X53595Y37312
X52625Y37361
X54289Y39368
X54295Y40438
X57831Y43146
X58492Y43344
X58992
X59492
X59992
X60492
Y43844
Y44344
Y44844
X59992
X59492
X58992
X58492
Y44344
X58992
X59492
X59992
Y43844
X59492
X58992
X58492
X61738Y43964
X62238
X62306Y40569
X61806
Y40069
X62306
X61823Y38942
X60278Y42040
X48502Y42829
X48437Y46546
X47833Y46313
X47191Y46581
X50205Y46257
X62738Y43964
X62959Y43624
X63416Y43612
X63306Y40569
X62806
Y40069
X63306
X63806
Y40569
X64306
Y40069
X64806
X64808Y40501
X64830Y40956
X65291Y40982
X65306Y40569
Y40069
X65266Y41439
X64847Y41455
X65250Y36866
X66554Y36931
X67054
Y37431
X66554
Y36431
X67054
Y35931
X66554
X66819Y35340
X66821Y35007
X66811Y34614
X66806Y34227
X67227Y34598
X67218Y34941
X67229Y35334
X67673Y35408
X68046Y35402
X68049Y35069
X68038Y34676
X68455Y34660
X68774Y34660
X68785Y35053
X68782Y35387
X68456Y35396
X68446Y35003
X69182Y34988
X69190Y34645
X69180Y34252
X68805Y34261
X68802Y33854
X69205Y33865
X69692Y33854
X69695Y34261
X70070Y34252
X70080Y34645
X70072Y34988
X70082Y35381
X69672Y35387
X69675Y35053
X69664Y34660
X69192Y35381
X69381Y35950
Y36450
Y36950
Y37450
X69881
Y36950
Y36450
Y35950
X68775
Y36450
Y36950
Y37450
X68275
Y36950
Y36450
Y35950
X68438Y33490
X68962
X69518Y33478
X70080Y33483
X70081Y33160
X70139Y32733
X70095Y33865
X71111Y33878
X71114Y34285
X71489Y34276
X71500Y34669
X71491Y35012
X71501Y35405
X71091Y35411
X71094Y35077
X71084Y34685
X71514Y33889
X72606Y33818
X72610Y34224
X72985Y34215
X72995Y34608
X72986Y34951
X72997Y35344
X73396Y35336
X73789Y35326
X74259Y35336
X74652Y35326
X74562Y34975
X74552Y34582
X74007Y34572
X74017Y34965
X73865Y34149
X73855Y33756
X73795Y33369
X74188Y33359
X73402Y33818
X73009Y33828
X72579Y34624
X72589Y35017
X72587Y35350
X72969Y35885
X73422Y35878
X73922
Y36378
Y36878
Y37378
X74442Y37352
Y36852
Y36352
Y35852
X75093Y35089
X75083Y34696
X75607
X75617Y35089
X76141
X76131Y34696
X76655
X76665Y35089
X77263Y35147
X77762
Y34702
X77573Y33964
X77073
X76573
X76690Y33326
X77190
X77690
X77642Y32794
X77142
X76480Y31943
X73759Y31749
Y31266
X73219
Y31749
X69502Y31742
X68951Y31736
X68936Y31261
X68972Y32211
X67267Y32155
X66689Y32006
Y32506
Y33006
X66867Y33490
X67391
X67914
X66689Y31506
X64184Y33144
X63684
X63671Y33650
X64184Y33644
X64190Y35529
X64616
X64016Y35845
X63640Y36061
X63214
Y36561
X63640
Y37061
X63214
Y35561
X63640
X62520Y32535
X71112Y35931
Y36431
X71612Y35931
X72969Y36385
Y36885
Y37385
Y37885
X73422Y37878
X72532Y38699
Y39204
X72008
Y38699
X71484
Y39204
X70960
Y38699
X70437
Y39204
Y39751
X70960
X71484
X72008
X72532
X72828Y40359
X72532Y40890
X72008
X71484
X70960
X70437
X70520Y41393
X70545Y41888
X71069
X71044Y41393
X71568
X71592Y41888
X72116
X72092Y41393
X72615
X72640Y41888
X72640Y42961
X72116
X71592
X71069
X70545
X70404Y42386
X70312Y40310
X75540Y38711
X76123Y38709
X75848Y37538
X75880Y37064
X75405Y37286
X75462Y37809
X75107Y36986
X77263Y36124
Y35652
X77762
X78285
Y35147
Y34702
X78809
Y35147
Y35652
X79333
Y35147
Y34702
X79883Y34698
X79878Y35158
X79883Y35637
X80407
X80402Y35158
X80407Y34698
Y34192
X79883
X79759Y33587
Y33087
Y32587
Y32087
Y31587
X80259
X80759
X81259
X81759
X82259
X82759
X83259
X83759
Y32087
X83259
X82759
X82259
X81759
X81259
X80759
X80259
Y32587
X80759
X81259
X81759
X82259
X82759
X83259
X83759
Y33087
X83259
X82759
X82259
X81759
X81259
X80759
X80259
Y33587
X80759
X81259
X81759
X82259
X82759
X83259
X83759
X83096Y34185
Y34711
X83091Y35192
X83096Y35638
X83097Y36113
X83096Y36574
X83093Y37061
X83134Y37564
X82572Y37560
X82528Y37075
X82534Y36569
X82528Y36108
X82534Y35634
X82529Y35188
X82534Y34706
Y34180
X81978Y34192
Y34698
X81973Y35158
X81978Y35637
X81972Y36100
X81978Y36561
X81980Y37080
X82017Y37547
X81493
X81448Y37080
X81449Y36589
X81452Y36121
X81455Y35637
X81450Y35158
X81455Y34698
Y34192
X80931
Y34698
X80926Y35158
X80931Y35637
X80837Y36860
X80313
X79811Y36874
X79287
X79318Y37512
X79842
X80358Y37533
X80882
X79190Y33326
X78690
X78190
X78725Y32089
X79225
X80800Y44224
Y44724
X81300
Y44224
X81800
Y44724
X81691Y46313
X82295Y46546
X81049Y46581
X83570Y45414
X82591Y47213
X82348Y47826
X81691Y48113
X81028Y47819
X80791Y47213
X86335Y46898
X70983Y50280
Y50780
Y51280
Y51780
X70483
X69983
X69483
X68983
Y51280
X68483
X67983
Y51780
X67483
Y51280
Y50780
X67983
X68483
X68983
X69483
Y51280
X69983
X70483
Y50780
X69983
Y50280
X70483
Y49780
X69983
X69483
Y50280
X68983
X68483
X67983
X67483
X66983
X66516Y50285
X66063Y50321
X66483Y50780
X66983
Y49780
X67483
X67983
X68483
X68983
X66483
X66343Y52379
Y52879
Y53379
Y53879
Y54379
X65843
X65343
Y53879
X65843
Y53379
X65343
Y52879
X65843
Y52379
X65343
X66843Y52879
Y53379
Y53879
Y54379
X67343
X67843
X68343
X68843
X69343
X69843
Y53879
X69343
X68843
X68343
X67843
X67343
Y53379
X67843
X68343
X68843
X69343
X69843
Y52879
X69343
X68843
X68343
X67843
X67343
Y52379
X67843
X68843
X54232Y48022
X53872Y47754
X53832Y48388
X53483Y48092
X53126Y47767
X53118Y48449
X53455Y48749
X52762Y48166
X53491Y47406
X53801Y47041
X50704Y49123
X48490Y47826
X48733Y47213
X46933
X47170Y47819
X47833Y48113
X43316Y48144
X41326Y48341
X38731Y47783
X37098Y47690
X37086Y48036
X36758
X36394
X36060
X36054Y47690
X36370
X36728
T03
X48793Y43264
X61867Y42806
T04
X65594Y27230
X56091Y27004
X56102Y27699
X39754Y29558
X37260Y33897
X34335Y34574
X36903Y39519
X37315Y41913
X46244Y32517
X49983Y32430
X55899Y44843
X65578Y38962
X67066Y38840
X71079Y37330
X71755Y37520
X72467Y37815
X75270Y35732
X75970Y35692
X63936Y34375
X83806Y35149
T05
X47945Y51976
Y52567
Y53157
Y53748
T06
X34957Y30525
X34324Y31279
X80742Y41330
Y42315
X66801Y51471
Y52455
X52967Y53549
X51982
X51983Y50422
X52968
T08
X75876Y24131
X77057
X60486Y24068
X59305
X55173Y25740
X53992
X44754Y25899
X43573
T09
X68304Y44235
X71257
T10
X48516Y27890
X50705
X52894
X46173Y27892
X43984
X41795
T11
X30461Y40535
X34398
X84539
X88476
T12
X68304Y48290
X71257
T13
X75563Y44726
X78397
T14
X81691Y24378
X47833
X81691Y47213
X47833
M30
