M48
;Layer_Color=9474304
;FILE_FORMAT=2:4
INCH,TZ
;TYPE=PLATED
T7F00S00C0.0394
%
G90
G05
T07
G00X75029Y22137
M15
G01Y22724
M16
G00X77903Y22137
M15
G01Y22724
M16
G00X61333Y22074
M15
G01Y22661
M16
G00X58459Y22074
M15
G01Y22661
M16
G00X56020Y23746
M15
G01Y24332
M16
G00X53146Y23746
M15
G01Y24332
M16
G00X45600Y23905
M15
G01Y24491
M16
G00X42726Y23905
M15
G01Y24491
M16
G00X79637Y46813
M15
G01Y47364
M16
G00X74322Y46813
M15
G01Y47364
M16
M17
M30
